<svg width="40" height="40" viewBox="0 0 40 40" fill="none" xmlns="http://www.w3.org/2000/svg">
<g id="5">
<g id="Page 1">
<path id="Fill 1" fill-rule="evenodd" clip-rule="evenodd" d="M20 3.15789C10.7137 3.15789 3.15789 10.7137 3.15789 20C3.15789 29.2863 10.7137 36.8421 20 36.8421C29.2863 36.8421 36.8421 29.2863 36.8421 20C36.8421 10.7137 29.2863 3.15789 20 3.15789ZM20 40C8.97158 40 0 31.0284 0 20C0 8.97158 8.97158 0 20 0C31.0284 0 40 8.97158 40 20C40 31.0284 31.0284 40 20 40Z" fill="#8DD666"/>
<path id="Fill 3" fill-rule="evenodd" clip-rule="evenodd" d="M18.0494 29.8556C17.6009 29.8556 17.1725 29.6651 16.8715 29.3283L9.87462 21.4883C9.29357 20.8377 9.35041 19.8398 10.0009 19.2588C10.6525 18.6777 11.6494 18.7346 12.2304 19.3851L17.8599 25.6925L27.6283 10.8556C28.1073 10.1272 29.0873 9.9251 29.8157 10.4051C30.5441 10.8851 30.7462 11.864 30.2662 12.5925L19.3683 29.1451C19.0988 29.5546 18.6536 29.8156 18.1652 29.8514C18.1262 29.8546 18.0873 29.8556 18.0494 29.8556Z" fill="#8DD666"/>
</g>
</g>
</svg>
