<svg width="20" height="20" viewBox="0 0 20 20" fill="none" xmlns="http://www.w3.org/2000/svg">
<g id="Page 1">
<mask id="mask0" mask-type="alpha" maskUnits="userSpaceOnUse" x="0" y="0" width="20" height="20">
<path id="Clip 2" fill-rule="evenodd" clip-rule="evenodd" d="M20 0V19.7703H0.000209808V0L20 0Z" fill="white"/>
</mask>
<g mask="url(#mask0)">
<path id="Fill 1" fill-rule="evenodd" clip-rule="evenodd" d="M8.23653 14.8942C11.9076 14.8942 14.8939 11.9079 14.8939 8.23684C14.8939 4.56526 11.9076 1.57895 8.23653 1.57895C4.56548 1.57895 1.57916 4.56526 1.57916 8.23684C1.57916 11.9079 4.56548 14.8942 8.23653 14.8942ZM8.23653 0C12.7781 0 16.4728 3.69474 16.4728 8.23684C16.4728 10.1921 15.785 11.9889 14.6418 13.4032L19.7628 18.4168C19.9207 18.5711 20.0002 18.7758 20.0002 18.9811C20.0002 19.18 19.925 19.3795 19.7744 19.5332C19.6197 19.6911 19.4155 19.7705 19.2107 19.7705C19.0113 19.7705 18.8118 19.6953 18.6581 19.5447L13.5371 14.5316C12.1034 15.7405 10.2544 16.4732 8.23653 16.4732C3.69495 16.4732 0.000213623 12.7779 0.000213623 8.23684C0.000213623 3.69474 3.69495 0 8.23653 0Z" fill="white"/>
</g>
</g>
</svg>
