<svg width="143" height="60" viewBox="0 0 143 60" fill="none" xmlns="http://www.w3.org/2000/svg">
<g opacity="0.8" clip-path="url(#clip0)">
<path d="M122.922 26.2071C120.534 26.7574 114.227 27.063 114.227 27.063L113.452 29.5493C113.452 29.5493 116.574 29.2843 118.861 29.5085C118.861 29.5085 119.595 29.4474 119.677 30.3237C119.718 31.2203 119.616 32.1578 119.616 32.1578C119.616 32.1578 119.554 32.708 118.799 32.8506C117.922 32.9933 112.002 33.2582 112.002 33.2582L111.043 36.4781C111.043 36.4781 110.696 37.2117 111.492 37.0079C112.227 36.8041 118.432 35.6222 119.248 35.7852C120.106 35.989 121.085 37.171 120.8 38.2307C120.473 39.5145 114.268 43.468 110.512 43.2031C110.512 43.2031 108.532 43.3254 106.879 40.6557C105.287 38.1084 107.43 33.3193 107.43 33.3193C107.43 33.3193 106.471 31.0777 107.185 30.2625C107.185 30.2625 107.593 29.9161 108.818 29.8142L110.349 26.6758C110.349 26.6758 108.614 26.7777 107.593 25.5142C106.655 24.2915 106.573 23.7617 107.308 23.4356C108.083 23.028 115.268 21.7442 120.208 21.9072C120.208 21.9072 121.943 21.7034 123.473 24.6991C123.473 24.6991 124.167 25.9218 122.943 26.2071H122.922ZM104.307 38.2714C103.695 39.7591 102.001 41.3282 99.9596 40.3704C97.8777 39.3923 94.5915 32.708 94.5915 32.708C94.5915 32.708 93.3668 30.2218 93.1218 30.3033C93.1218 30.3033 92.8565 29.8142 92.7136 32.545C92.5095 35.2553 92.7544 40.5335 91.6318 41.369C90.6113 42.1842 89.3866 41.8377 88.6926 40.8799C88.1211 39.9221 87.8761 37.6193 88.2027 33.6047C88.5701 29.59 89.4886 25.3105 90.6521 23.9858C91.8768 22.6408 92.8565 23.619 93.2239 23.9858C93.2239 23.9858 94.7956 25.4123 97.449 29.6308L97.8981 30.4052C97.8981 30.4052 100.307 34.4198 100.552 34.3994C100.552 34.3994 100.756 34.6032 100.919 34.4402C101.164 34.379 101.082 33.0748 101.082 33.0748C101.082 33.0748 100.633 28.7341 98.388 21.3977C98.388 21.3977 98.0614 20.4603 98.2859 19.5636C98.49 18.7485 99.3677 19.156 99.3677 19.156C99.3677 19.156 102.756 20.7863 104.409 26.2886C106.042 31.7909 104.94 36.7838 104.328 38.2714H104.307ZM87.6924 24.1489C87.3659 24.7195 87.223 25.5142 85.8146 25.7384C85.8146 25.7384 72.139 26.6962 71.4654 27.654C71.4654 27.654 71.0164 28.2246 71.7512 28.3673C72.5268 28.5303 75.6293 28.9379 77.099 29.0194C78.691 29.0194 84.0388 29.0602 85.9983 31.4649C85.9983 31.4649 87.1209 32.6061 87.0801 35.1942C87.0393 37.8435 86.5698 38.7809 85.5288 39.7387C84.447 40.6354 75.1803 44.7927 69.1998 38.4344C69.1998 38.4344 66.4647 35.3776 70.1591 33.0544C70.1591 33.0544 72.8126 31.4241 79.6096 33.3193C79.6096 33.3193 81.6507 34.053 81.569 34.807C81.4466 35.6222 79.8749 36.4373 77.5888 36.3966C75.3844 36.3354 73.7515 35.2757 74.0781 35.4591C74.3843 35.561 71.69 34.1549 70.8531 35.1127C70.0366 36.0094 70.2408 36.5392 71.0572 37.0894C73.0983 38.2714 81.12 37.8435 83.5081 35.1738C83.5081 35.1738 84.4674 34.0937 83.0182 33.2175C81.5895 32.4023 77.4255 31.8928 75.813 31.8317C74.2822 31.7502 68.5466 31.8317 67.6893 30.344C67.6893 30.344 66.8729 29.2843 67.771 26.3905C68.7099 23.3337 75.3844 22.1517 78.2828 21.9072C78.2828 21.9072 86.2432 21.5811 87.7333 23.2114C87.7333 23.2114 87.9374 23.5782 87.6924 24.1285V24.1489ZM65.1175 42.0619C64.1582 42.7751 62.1171 42.4695 61.5251 41.6543C60.9536 40.941 60.7495 38.1288 60.8516 33.7065C60.9944 29.1824 61.0557 23.6394 62.0762 22.7427C63.0968 21.8664 63.7091 22.6408 64.1174 23.2318C64.5256 23.8432 65.0563 24.5157 65.1379 25.9218C65.2604 27.3483 65.6074 34.6847 65.6074 34.6847C65.6074 34.6847 66.0564 41.369 65.1379 42.0619H65.1175ZM67.1586 18.2186C64.3419 19.1764 62.4232 18.8707 60.7903 18.1575C60.0759 19.4413 59.6473 19.8285 59.1166 19.9101C58.3001 19.9916 57.5857 18.6873 57.4837 18.2797C57.3204 17.9741 56.9326 17.4238 57.402 16.1807C55.81 14.7542 55.6875 12.8386 55.9732 11.5547C56.3407 10.0467 59.0349 4.38135 67.1995 3.70885C67.1995 3.70885 71.2001 3.42355 71.8941 5.54295H72.0165C72.0165 5.54295 75.8947 5.54295 75.813 9.00736C75.813 12.4718 71.5267 16.7921 67.1586 18.2797V18.2186ZM70.7919 8.35523C68.22 8.76281 64.2602 12.1865 62.362 15.0191C65.2808 15.549 70.3836 15.3452 72.6697 10.7396C72.6697 10.7396 73.7515 7.84576 70.7919 8.35523ZM59.5044 10.5969C58.688 11.9215 58.6471 12.7163 59.0349 13.2462C59.9943 11.8196 61.6884 9.57797 64.2398 7.82538C62.2803 8.02917 60.627 8.84433 59.5044 10.5969ZM129.046 41.9192C127.168 46.5249 125.576 51.1916 124.657 58.1816C124.657 58.1816 124.453 59.547 123.331 59.0986C122.208 58.691 120.371 56.8569 119.963 54.2688C119.554 50.8859 121.065 45.1799 124.147 38.6179C123.249 37.1913 122.616 35.0719 123.126 32.0966C123.126 32.0966 123.943 26.5943 129.454 21.6219C129.454 21.6219 130.107 21.0716 130.475 21.2551C130.924 21.4588 130.74 23.2114 130.372 24.1081C130.046 24.964 127.597 29.2028 127.597 29.2028C127.597 29.2028 126.066 32.0966 126.494 34.3587C129.393 29.9161 135.986 20.9086 140.068 23.7617C142.66 25.5958 142.66 31.5056 140.721 34.9293C139.19 37.6397 134.863 43.2439 129.087 41.9396L129.046 41.9192ZM137.578 28.082C136.067 29.7123 133.373 32.8099 131.25 37.0079C133.495 36.7634 135.679 35.5203 136.353 34.8885C137.435 33.9307 139.925 31.3426 139.537 27.9189C139.537 27.9189 139.292 26.1256 137.578 28.082ZM46.135 44.3239C38.9094 46.5249 32.092 45.5059 28.3771 44.5277C28.2751 46.0358 28.1118 46.6675 27.8669 46.9121C27.5811 47.2381 25.2134 48.5831 23.9071 46.6675C23.3355 45.7505 23.0498 44.0998 22.8865 42.5917C14.5179 38.8013 10.6397 33.2175 10.5172 33.0137C10.3131 32.8099 8.41488 30.8331 10.3131 28.3877C12.0889 26.1867 17.9674 23.9654 23.2335 23.0892C23.4376 18.6058 23.9275 15.1414 24.5602 13.613C25.3154 11.7789 26.2748 13.4092 27.1321 14.6319C27.826 15.549 28.2547 19.4821 28.2955 22.6204C31.7246 22.4574 33.8066 22.702 37.6235 23.4356C42.6447 24.2915 45.9921 26.8592 45.7268 29.753C45.4818 32.6061 42.8692 33.7881 41.8486 33.8696C40.828 33.9511 39.1951 33.1971 39.1951 33.1971C38.0521 32.6672 39.0931 32.1781 40.4198 31.6075C41.8894 30.8943 41.5629 30.181 41.5629 30.181C41.0322 28.5507 34.521 27.4706 28.0506 27.4706C28.0506 31.0369 28.1934 36.9468 28.2955 40.3908C32.8268 41.2467 36.2151 41.0633 36.2151 41.0633C36.2151 41.0633 52.7483 40.5946 53.2177 30.0587C53.728 19.5025 36.6846 9.39456 24.1316 6.21545C11.599 2.93445 4.4959 5.25765 3.88356 5.56333C3.20999 5.88939 3.82233 6.01166 3.82233 6.01166C3.82233 6.01166 4.4959 6.11356 5.72058 6.52113C6.94526 6.92871 5.96552 7.54008 5.96552 7.54008C3.82233 8.27372 1.43421 7.84576 0.964746 6.86758C0.495286 5.90977 1.27092 5.03348 2.18942 3.74961C3.0467 2.42498 4.02644 2.46574 4.02644 2.46574C19.539 -2.93466 38.4807 6.7453 38.4807 6.7453C56.1978 15.6712 59.2186 26.1664 58.8921 30.2421C58.6063 34.2568 57.055 41.0429 46.135 44.3443V44.3239ZM12.0481 29.753C10.2927 30.5682 11.5174 31.8724 11.5174 31.8724C14.824 35.398 18.8655 37.6193 22.7436 39.0051C23.1927 32.8914 23.1518 30.7109 23.1518 27.6336C17.1509 28.0412 13.681 29.0194 12.0481 29.753Z" fill="#777777"/>
</g>
<defs>
<clipPath id="clip0">
<rect width="142.89" height="60" fill="white"/>
</clipPath>
</defs>
</svg>
