<svg width="112" height="29" viewBox="0 0 112 29" fill="none" xmlns="http://www.w3.org/2000/svg">
<path d="M22.5912 20.1557L23.2631 20.3237L20.9116 27.4622H0.167964V26.7063H1.17575C2.3515 26.7063 2.93937 26.3704 3.44327 25.6146C3.69521 25.1947 3.86318 24.1869 3.86318 22.6752V4.78699C3.86318 3.10734 3.69522 2.01558 3.2753 1.59566C2.77141 1.00779 2.01557 0.671861 0.923804 0.671861H0V0H12.0094V0.671861C10.5817 0.671861 9.65795 0.755844 9.07007 1.09177C8.4822 1.34372 8.14627 1.76363 7.89432 2.18354C7.64238 2.60345 7.55839 3.61124 7.55839 5.2069V22.8432C7.55839 23.9349 7.64238 24.7747 7.89432 25.1947C8.06229 25.4466 8.31423 25.6986 8.65016 25.8665C8.98609 26.0345 10.3298 26.0345 12.0934 26.0345H13.7731C15.8726 26.0345 17.3003 25.8665 18.1401 25.5306C18.98 25.1947 19.7358 24.6908 20.4916 23.8509C21.2475 23.0111 21.9193 21.9194 22.5912 20.1557Z" fill="#777777"/>
<path d="M46.8616 0V0.755846C45.9378 0.923805 45.5178 1.25973 45.0139 1.67964C44.3421 2.3515 43.6702 3.35928 43.1663 4.703L33.6764 28.218H32.8365L22.7587 4.45105C22.2548 3.19132 21.8349 2.51947 21.6669 2.18354C21.331 1.76363 20.9111 1.4277 20.4072 1.17575C19.9033 0.923804 19.5674 0.755842 18.7275 0.755842V0H29.1413V0.755842C27.8816 0.839825 27.4617 1.09177 27.1258 1.4277C26.7898 1.76363 26.5379 2.09956 26.5379 2.60345C26.5379 3.2753 26.8738 4.36707 27.4617 5.79477L34.3482 21.8354L40.8148 5.96273C41.4027 4.36707 41.7386 3.27531 41.7386 2.68743C41.7386 2.26752 41.5707 1.93159 41.1508 1.59566C40.7309 1.25973 39.975 1.00779 39.0512 0.839826C38.9672 0.839826 38.8833 0.839829 38.7153 0.755846V0H46.8616Z" fill="#777777"/>
<path d="M63.9098 27.4622L53.58 4.61902V22.7592C53.58 24.4388 53.7479 25.4466 54.1678 25.8665C54.6717 26.4544 55.2596 26.7063 56.3514 26.7063H57.3592V27.4622H47.7012V26.7063H49.2968C50.4726 26.7063 51.3124 26.3704 51.7323 25.6986C52.0683 25.2786 52.1523 24.2708 52.1523 22.7592V4.70301C52.1523 3.52725 51.9843 2.60345 51.7323 2.09956C51.5644 1.67965 51.2284 1.4277 50.7245 1.09177C50.2207 0.839827 49.5488 0.671861 48.457 0.671861V0H55.5955L65.4215 21.4994L75.1635 0H82.554V0.755846H81.6302C80.4544 0.755846 79.7826 1.09177 79.3626 1.76363C79.0267 2.18354 78.8587 3.19133 78.8587 4.703V22.7592C78.8587 24.4388 79.0267 25.4466 79.4466 25.8665C79.9505 26.4544 80.6224 26.7063 81.7142 26.7063H82.47V27.4622H71.3843V26.7063H72.2241C73.3999 26.7063 74.2397 26.3704 74.6596 25.6986C74.9955 25.2786 75.0795 24.2708 75.0795 22.7592V4.36707L64.5817 27.4622H63.9098Z" fill="#777777"/>
<path d="M91.4559 12.5973H104.137V4.78698C104.137 3.35928 104.053 2.43548 103.885 2.01557C103.717 1.67964 103.465 1.4277 103.045 1.17575C102.458 0.839828 102.038 0.671857 101.366 0.671857H100.442V0H111.612V0.755842H110.688C110.016 0.755842 109.596 0.923801 109.092 1.25973C108.672 1.51168 108.336 1.76363 108.252 2.26752C108.084 2.68743 108 3.61124 108 4.95495V22.7592C108 24.1869 108.084 25.0267 108.252 25.5306C108.42 25.8665 108.672 26.1185 109.092 26.3704C109.68 26.7063 110.184 26.8743 110.772 26.8743H111.696V27.6301H100.526V26.8743H101.45C102.542 26.8743 103.213 26.5384 103.717 25.8665C104.053 25.4466 104.221 24.4388 104.221 22.7592V14.109H91.4559V22.6752C91.4559 24.1029 91.5398 24.9427 91.7078 25.4466C91.8758 25.7825 92.1277 26.0345 92.5476 26.2864C93.1355 26.6223 93.5554 26.7903 94.2273 26.7903H95.2351V27.5462H84.2334V26.7903H85.1572C86.249 26.7903 86.7529 26.4544 87.3407 25.7825C87.6767 25.3626 87.8446 24.3548 87.8446 22.6752V4.78699C87.8446 3.35929 87.7606 2.43549 87.5927 2.01558C87.4247 1.67965 87.1728 1.4277 86.7529 1.17576C86.165 0.839829 85.7451 0.671861 85.0732 0.671861H84.1494V0H95.2351V0.755846H94.2273C93.5554 0.755846 93.1355 0.923802 92.6316 1.25973C92.2117 1.51168 91.9598 1.76363 91.7918 2.26752C91.6238 2.68743 91.5398 3.61124 91.5398 4.95495L91.4559 12.5973Z" fill="#777777"/>
</svg>
