<svg width="112" height="30" viewBox="0 0 112 30" fill="none" xmlns="http://www.w3.org/2000/svg">
<g id="g15910" opacity="0.8">
<path id="path15912" d="M19.1177 1.09768C18.8426 1.43115 18.687 1.80353 18.687 2.45103V20.2543H18.5883C18.5883 20.2543 8.84397 2.88176 8.37294 2.07864C8.03946 1.50896 7.66709 1.11713 7.1766 0.822567C6.68612 0.548841 6.17619 0.372379 5.19661 0.372379H1.98138C1.23524 0.372379 0.765597 0.626652 0.432124 1.01987C0.15701 1.35195 0 1.72572 0 2.37182V27.6073C0 28.2548 0.15701 28.6272 0.432124 28.9607C0.765597 29.3525 1.23524 29.6068 1.98138 29.6068H3.80436C4.54912 29.6068 5.02015 29.3525 5.35362 28.9607C5.62735 28.6272 5.78436 28.2548 5.78436 27.6073V9.37196H5.88301C5.88301 9.37196 15.9997 27.2933 16.4124 27.9603C16.9807 28.9009 17.9408 29.6068 19.3136 29.6068H22.4316C23.1763 29.6068 23.6474 29.3525 23.9808 28.9607C24.2546 28.6272 24.4116 28.2548 24.4116 27.6073V4.8423H65.3717C65.7844 4.8423 66.097 4.72558 66.3332 4.52966C66.5875 4.29346 66.7056 3.97944 66.7056 3.5098V1.78408C66.7056 1.31305 66.5875 0.999029 66.3332 0.76421C66.097 0.568295 65.7844 0.45019 65.3717 0.45019H20.667C19.9222 0.45019 19.4512 0.705851 19.1177 1.09768ZM37.0002 7.84216C30.1959 7.84216 26.3721 13.1569 26.3721 18.7648C26.3721 24.745 30.471 30 37.0391 30C40.314 30 43.5293 28.7648 45.3717 26.5875C46.1762 25.6468 46.8237 24.3324 46.8237 23.5292C46.8237 23.2541 46.7639 23.0193 46.6083 22.8429C46.4513 22.6469 46.2151 22.5288 45.8038 22.5288H42.647C42.0189 22.5288 41.5882 22.7637 41.2742 23.2347C40.3529 24.588 39.019 25.2939 37.0585 25.2939C34.117 25.2939 32.2162 23.0582 32.0787 20.6072H45.726C46.3332 20.6072 46.7639 20.4696 47.0585 20.1765C47.392 19.8624 47.549 19.4109 47.549 18.5675C47.549 15.9997 46.7445 13.3333 45.0591 11.2936C43.3334 9.2344 40.7059 7.84216 37.0002 7.84216ZM58.0381 7.84216C52.6664 7.84216 49.1372 10.3918 49.1372 14.4699C49.1372 15.9205 49.6665 17.0974 50.5294 18.0186C51.5298 19.0982 52.961 19.843 55.0396 20.3724L59.529 21.509C60.7642 21.823 61.8619 22.1954 61.8619 23.2736C61.8619 24.9409 60.0973 25.5092 58.2159 25.5092C57.2933 25.5092 56.3332 25.3328 55.5482 24.9409C54.9993 24.6658 54.5297 24.274 54.1962 23.7446C53.9016 23.293 53.8044 22.9596 53.3528 22.7053C53.0777 22.5483 52.7442 22.5288 52.294 22.5288H49.8625C49.3331 22.5288 49.0788 22.6858 48.9023 22.9012C48.7259 23.1166 48.6661 23.4306 48.6661 23.7446C48.6661 24.5283 48.9412 25.5092 49.5887 26.3916C51.0782 28.391 54.1962 30 58.1756 30C62.0981 30 67.5295 28.3715 67.5295 23.1166C67.5295 21.7646 67.1363 20.6072 66.411 19.6665C65.4898 18.4702 64.1768 17.6462 61.9411 17.0779L57.4906 15.94C55.6468 15.4703 54.784 15.1369 54.784 13.9989C54.784 12.9012 55.7649 12.0189 58.0381 12.0189C59.372 12.0189 60.5878 12.3135 61.3728 13.1374C62.0189 13.8238 61.9022 14.1767 62.4121 14.4505C62.7248 14.6075 63.0777 14.6075 63.6279 14.6075H65.8427C66.1957 14.6075 66.4513 14.5491 66.6459 14.3324C66.8042 14.1559 66.9015 13.8822 66.9015 13.4306C66.9015 12.4107 66.2346 11.0977 65.0591 10.0973C63.4904 8.74392 61.0199 7.84216 58.0381 7.84216ZM70.2543 8.5883H69.1566C68.7453 8.5883 68.4313 8.70502 68.1965 8.90093C67.9408 9.13714 67.8227 9.45116 67.8227 9.9208V11.2741C67.8227 11.7452 67.9408 12.0578 68.1965 12.294C68.4313 12.4899 68.7453 12.608 69.1566 12.608H70.2543V22.3913C70.2543 24.9007 70.9407 26.4694 72.2148 27.7254C73.3917 28.8815 74.9215 29.6068 77.5879 29.6068H79.2539C79.6665 29.6068 79.9792 29.4901 80.2154 29.2941C80.4697 29.0579 80.6267 28.7439 80.6267 28.2743V26.568C80.6267 26.097 80.4697 25.7844 80.2154 25.5481C79.9792 25.3522 79.6665 25.2341 79.2539 25.2341H79.0191C77.9603 25.2341 77.235 24.9604 76.7445 24.4894C76.1568 23.9405 75.8622 23.0971 75.8622 21.9994V12.608H79.4317C79.843 12.608 80.157 12.4899 80.3919 12.294C80.6461 12.0578 80.7642 11.7452 80.7642 11.2741V9.9208C80.7642 9.45116 80.6461 9.13714 80.3919 8.90093C80.157 8.70502 79.843 8.5883 79.4317 8.5883H75.8816V2.19536C75.8816 1.68543 75.7246 1.31305 75.4898 1.01987C75.1952 0.666946 74.784 0.45019 74.1768 0.45019H71.9606C71.352 0.45019 70.9407 0.666946 70.6461 1.01987C70.4113 1.31305 70.2543 1.68543 70.2543 2.19536V8.5883ZM82.2551 27.8616C82.2551 28.3715 82.4108 28.7439 82.647 29.0385C82.9401 29.3914 83.3528 29.6068 83.96 29.6068H86.2929C86.9015 29.6068 87.3128 29.3914 87.6074 29.0385C87.8422 28.7439 87.9992 28.3715 87.9992 27.8616V2.19675C87.9992 1.68682 87.8422 1.31444 87.6074 1.01987C87.3128 0.666946 86.9015 0.45019 86.2929 0.45019H83.96C83.3528 0.45019 82.9401 0.666946 82.647 1.01987C82.4108 1.31444 82.2551 1.68682 82.2551 2.19675V27.8616ZM32.1176 16.4305C32.3718 14.0183 34.2157 12.2148 37.0196 12.2148C39.7652 12.2148 41.666 14.0183 41.9216 16.4305H32.1176ZM109.234 4.8423C109.646 4.8423 109.96 4.72558 110.195 4.52966C110.45 4.29346 110.568 3.97944 110.568 3.5098V1.68543C110.568 0.979576 110.431 0.626652 110.195 0.372379C109.979 0.136171 109.626 0 109.234 0C108.92 0 108.608 0.038908 108.078 0.0972652L92.4302 1.64652C91.98 1.68543 91.7647 1.82298 91.6076 1.99945C91.4312 2.19536 91.352 2.45102 91.352 2.80395V3.82243C91.352 4.21565 91.4312 4.39211 91.5687 4.54912C91.7438 4.74503 91.9995 4.8423 92.3524 4.8423H109.234ZM100.588 7.84216C93.7836 7.84216 89.9597 13.1569 89.9597 18.7648C89.9597 24.745 94.0587 30 100.627 30C103.902 30 107.117 28.7648 108.959 26.5875C109.764 25.6468 110.411 24.3324 110.411 23.5292C110.411 23.2541 110.352 23.0193 110.195 22.8429C110.039 22.6469 109.803 22.5288 109.391 22.5288H106.235C105.607 22.5288 105.176 22.7637 104.862 23.2347C103.941 24.588 102.607 25.2939 100.646 25.2939C97.7046 25.2939 95.8024 23.0582 95.6663 20.6072H109.353C109.96 20.6072 110.392 20.4696 110.685 20.1765C111.019 19.8624 111.176 19.4109 111.176 18.5675C111.176 15.9997 110.371 13.3333 108.686 11.2936C106.96 9.2344 104.293 7.84216 100.588 7.84216ZM95.7052 16.4305C95.9608 14.0183 97.8033 12.2148 100.607 12.2148C103.353 12.2148 105.254 14.0183 105.509 16.4305H95.7052Z" fill="#777777"/>
</g>
</svg>
