<svg width="173" height="36" viewBox="0 0 173 36" fill="none" xmlns="http://www.w3.org/2000/svg">
<g id="XMLID 1" opacity="0.8">
<path id="XMLID 4" d="M27.1076 0.932333V20.7252C27.1076 27.3228 24.1673 30.0479 17.2829 30.0479C10.3984 30.0479 7.45817 27.3228 7.45817 20.7252V0.0717773H0.860556C0.28685 0.0717773 0 0.358628 0 0.932333V21.0837C0 32.1276 7.0279 36.0001 17.2829 36.0001C27.5379 36.0001 34.5657 32.1276 34.5657 21.0837V0.0717773H27.9681C27.3944 0.0717773 27.1076 0.358628 27.1076 0.932333Z" fill="#777777"/>
<path id="XMLID 5" d="M122.917 5.80883C123.49 5.80883 123.705 5.59369 123.921 5.23512L125.857 0.502061C126 0.215208 125.857 0.0717773 125.57 0.0717773H98.9644C96.4545 0.0717773 95.5222 0.860618 95.5222 2.51002V33.275C95.5222 34.7092 96.2393 35.3547 98.1756 35.3547H122.988C123.562 35.3547 123.777 35.1395 123.992 34.7809L125.929 30.0479C126.072 29.761 125.929 29.6176 125.642 29.6176H102.909V23.3786C102.909 21.2272 104.128 20.2232 107.283 20.2232H117.18C117.753 20.2232 117.968 20.008 118.184 19.6495L120.048 15.1315C120.192 14.8447 120.048 14.7013 119.761 14.7013H102.98V5.80883H122.917Z" fill="#777777"/>
<path id="XMLID 9" d="M76.0876 16.7092C78.9561 15.2032 80.1753 12.3347 80.1753 8.96415C80.1753 1.14741 73.7928 0 67.2669 0H52.2071C49.6972 0 48.7649 0.788851 48.7649 2.43825V33.2032C48.7649 34.6375 49.482 35.2829 51.4183 35.2829H69.9203C76.8765 35.2829 81.8964 32.5578 81.8964 25.5299C81.8247 21.3705 80.0318 17.7849 76.0876 16.7092ZM56.0796 5.73705H67.7689C71.6414 5.73705 72.7888 7.17132 72.7888 10.255C72.7888 13.2669 71.7131 14.7729 67.7689 14.7729H56.0796V5.73705ZM69.1314 29.6892H56.0796V23.2351C56.0796 21.0837 57.2988 20.0797 60.4541 20.0797H69.0597C73.2191 20.0797 74.3665 21.6574 74.3665 24.8845C74.4382 28.1833 73.2908 29.6892 69.1314 29.6892Z" fill="#777777"/>
<path id="XMLID 12" d="M171.968 34.7092L164.08 21.1554C168.024 20.1514 171.18 17.5697 171.18 10.9004C171.18 2.36654 165.873 0 157.124 0H141.992C139.482 0 138.55 0.788851 138.55 2.43825V34.494C138.55 35.0677 138.837 35.3546 139.411 35.3546H145.865V25.0279C145.865 22.8765 147.084 21.8725 150.239 21.8725H156.765L163.937 34.7092C164.152 35.0677 164.367 35.2829 164.94 35.2829H171.682C172.112 35.3546 172.112 34.9243 171.968 34.7092ZM158.199 16.4223H145.936V5.73705H158.199C162.789 5.73705 163.793 7.52988 163.793 11.1155C163.793 14.7012 162.789 16.4223 158.199 16.4223Z" fill="#777777"/>
</g>
</svg>
