<svg width="106" height="56" viewBox="0 0 106 56" fill="none" xmlns="http://www.w3.org/2000/svg">
<g clip-path="url(#clip0)">
<path d="M4.31327 35.64C1.5321 35.64 0.0527362 33.8583 0.0361438 30.4876L0 22.7219C0 22.6357 0.0645727 22.5659 0.148591 22.554L2.57255 22.3215C2.61821 22.3167 2.66376 22.331 2.6999 22.3671C2.7333 22.3935 2.75486 22.4367 2.75486 22.4867L2.791 30.1566C2.79808 31.8419 3.43831 32.7005 4.69944 32.7005C4.79783 32.7005 4.89855 32.6956 5.00634 32.6812C6.48338 32.5371 7.22887 31.5354 7.22179 29.6937L7.18586 22.0238C7.18586 21.9351 7.25064 21.8678 7.33699 21.8583L9.76813 21.6209C9.81855 21.6164 9.86409 21.6306 9.90013 21.6618C9.93374 21.6929 9.95276 21.7409 9.95276 21.7863L9.9888 29.5473C9.99831 31.6309 9.3678 35.1841 5.02346 35.6062C4.77585 35.6279 4.53848 35.64 4.31327 35.64Z" fill="#777777"/>
<path d="M12.5893 34.5323C12.5509 34.5323 12.5078 34.5155 12.4767 34.4843C12.4455 34.4581 12.4263 34.4125 12.4263 34.3644L12.3638 21.5591C12.3638 21.4681 12.431 21.3961 12.5173 21.3914L15.102 21.2139C15.1572 21.2092 15.2122 21.233 15.2434 21.2763L20.7193 28.5048L20.686 20.9789C20.6837 20.8902 20.7506 20.8182 20.8395 20.8135L22.93 20.6648C22.9756 20.6648 23.0212 20.6794 23.0549 20.713C23.0908 20.7441 23.1075 20.7849 23.1075 20.8327L23.1675 33.6382C23.1698 33.7292 23.1005 33.8014 23.0141 33.8062L20.8684 33.9546C20.8133 33.9546 20.7556 33.9356 20.7245 33.8948L14.8097 26.0572L14.8482 34.2206C14.8482 34.3094 14.781 34.3791 14.6947 34.3838L12.6015 34.5323H12.5893Z" fill="#777777"/>
<path d="M26.2344 33.65C26.1935 33.65 26.1505 33.6332 26.1216 33.6043C26.0881 33.5733 26.0665 33.5301 26.0665 33.4869L25.9945 20.7174C25.9945 20.6288 26.0616 20.552 26.1505 20.5497L28.9317 20.4131C28.9796 20.4107 29.0228 20.4275 29.0563 20.4587C29.09 20.485 29.1091 20.5306 29.1091 20.5761L29.1714 33.3456C29.1714 33.434 29.0995 33.5063 29.0107 33.5136L26.244 33.6504H26.2345L26.2344 33.65Z" fill="#777777"/>
<path d="M36.4862 33.2183C36.4191 33.2183 36.3589 33.1774 36.3325 33.1173L30.8878 20.5087C30.8685 20.4582 30.8735 20.396 30.9045 20.3505C30.9331 20.3048 30.9811 20.2759 31.0387 20.2759L34.218 20.1801C34.2971 20.1824 34.3499 20.2208 34.3762 20.2806L37.9174 28.5114L41.5786 20.0601C41.6027 20.0025 41.66 19.9617 41.7224 19.9593L44.2325 19.8875C44.2973 19.8875 44.3427 19.9114 44.3741 19.9593C44.41 20.0097 44.4124 20.0649 44.3885 20.1175L38.8093 33.0526C38.7851 33.1124 38.7252 33.1485 38.6605 33.1507L36.4883 33.218L36.4862 33.2183Z" fill="#777777"/>
<path d="M46.3354 32.9765C46.2443 32.9765 46.1677 32.9043 46.1677 32.8131L46.0933 20.0437C46.0933 20.0005 46.1101 19.9574 46.1413 19.9239C46.1747 19.8927 46.2157 19.8758 46.2588 19.8758L56.494 19.8687C56.585 19.8687 56.6595 19.9406 56.6595 20.0317L56.6711 22.5179C56.6711 22.5613 56.6545 22.6068 56.6234 22.6355C56.5896 22.6665 56.5489 22.6833 56.5034 22.6833L49.3756 22.6904L49.3849 24.901L54.1753 24.8939C54.2665 24.8939 54.3405 24.973 54.3405 25.0618L54.3528 27.5649C54.3528 27.6129 54.3361 27.656 54.3048 27.6872C54.2734 27.7182 54.2304 27.7328 54.1874 27.7328L49.3995 27.7399L49.4066 30.135L56.6233 30.1255C56.7143 30.1255 56.7887 30.2044 56.7887 30.2957L56.8005 32.7963C56.8005 32.8443 56.7839 32.8874 56.7525 32.9136C56.7216 32.9471 56.678 32.964 56.635 32.964L46.3375 32.9761H46.3352V32.9765H46.3354Z" fill="#777777"/>
<path d="M62.8929 25.4934L65.1634 25.5629C65.2668 25.5653 65.3649 25.5653 65.4587 25.5653C66.2951 25.5653 66.7844 25.4478 67.048 25.1794C67.2612 24.9658 67.3547 24.6326 67.3547 24.0956C67.3479 23.489 67.2351 22.9375 65.8515 22.8992L62.8834 22.808L62.8929 25.4934ZM70.992 33.3647H70.9849L67.6762 33.264C67.6185 33.264 67.5682 33.2328 67.5398 33.1798L64.7369 28.361L62.9245 28.3057L62.9457 32.9494C62.9457 32.9953 62.9291 33.0384 62.893 33.0696C62.8665 33.1006 62.8213 33.1151 62.773 33.12L59.9825 33.0338C59.8914 33.0315 59.8194 32.9595 59.8194 32.8656L59.7596 20.0606C59.7596 20.0149 59.7787 19.9718 59.8121 19.9407C59.8385 19.912 59.8839 19.8904 59.9319 19.8927L66.9593 20.1038C69.2898 20.1758 70.6325 21.6597 70.6445 24.182C70.656 26.6109 69.3543 27.6227 68.1771 28.0446L71.1335 33.1152C71.1645 33.1681 71.1645 33.2329 71.1335 33.2833C71.1072 33.3331 71.0543 33.3647 70.992 33.3647Z" fill="#777777"/>
<path d="M78.2642 34.1104C78.089 34.1104 77.9116 34.1054 77.7269 34.0936C75.7465 33.9906 73.6799 32.7506 73.0972 32.3719C73.0468 32.3458 73.018 32.293 73.018 32.2353L73.0036 29.2817C73.0036 29.2242 73.0372 29.1644 73.0945 29.1354C73.145 29.109 73.2145 29.1113 73.2625 29.1449C75.0535 30.3413 76.7655 31.1133 77.7317 31.1686C78.6476 31.2164 79.2541 31.0799 79.5587 30.7751C79.7072 30.6266 79.7767 30.4372 79.7767 30.1927C79.7767 29.9048 79.4821 29.6244 78.849 29.3101C78.4749 29.1185 78.0316 28.9362 77.5588 28.7418C75.5643 27.9221 72.8285 26.8024 72.8167 23.779C72.8119 22.772 73.1284 21.9353 73.7613 21.2975C74.5764 20.48 75.8859 20.0627 77.3529 20.1418C79.0791 20.2376 81.1361 21.12 82.1 21.6931C82.1502 21.7219 82.1792 21.7793 82.1792 21.8369L82.1959 24.6971C82.1959 24.7595 82.1622 24.817 82.1071 24.8435C82.052 24.8748 81.9897 24.8722 81.937 24.8387C81.3425 24.4481 79.2635 23.1751 77.3505 23.0718C76.6721 23.0358 76.334 23.2155 76.1876 23.3642C76.0438 23.5056 76.0246 23.652 76.0246 23.7286C76.0246 24.038 76.3313 24.3521 76.9596 24.69C77.3362 24.8915 77.8178 25.0953 78.3285 25.3087C80.2948 26.1382 82.9871 27.27 82.999 29.9887C83.0061 31.202 82.6562 32.168 81.9536 32.8708C81.1387 33.693 79.897 34.1104 78.2642 34.1104Z" fill="#777777"/>
<path d="M88.5066 28.953L90.8223 29.1209L89.6836 25.9874L88.5066 28.953ZM95.7327 34.9208C95.7304 34.9208 95.7279 34.9208 95.7208 34.9185L92.966 34.7171C92.8989 34.7102 92.8436 34.6713 92.8223 34.6069L91.8941 32.0292L87.4131 31.6982L86.4639 34.1224C86.4375 34.1896 86.375 34.2326 86.2985 34.2279L83.9898 34.0579C83.9393 34.053 83.8841 34.0241 83.8577 33.9834C83.8316 33.9355 83.8268 33.8801 83.846 33.8323L88.7943 21.2833C88.8234 21.2137 88.8881 21.173 88.9625 21.1754L90.8924 21.3192C90.9546 21.3215 91.0146 21.3649 91.0361 21.4296L95.8865 34.6976C95.9125 34.7481 95.901 34.8081 95.8671 34.8513C95.8357 34.8969 95.783 34.9208 95.7327 34.9208Z" fill="#777777"/>
<path d="M105.62 35.834H105.604L97.6629 35.1031C97.5768 35.0933 97.5144 35.0217 97.5144 34.9349L97.4374 21.9787C97.4374 21.9284 97.454 21.8853 97.4904 21.8515C97.5288 21.8204 97.5694 21.806 97.6196 21.8083L100.02 22.0314C100.106 22.0386 100.171 22.1106 100.171 22.1968L100.219 32.4611L105.623 32.9598C105.707 32.9667 105.772 33.0388 105.774 33.1275L105.784 35.6665C105.786 35.7171 105.767 35.7577 105.733 35.7912C105.702 35.8201 105.661 35.834 105.62 35.834Z" fill="#777777"/>
<path d="M58.6086 1.77409C57.2611 1.44552 55.7815 1.69493 55.8224 1.75263C55.6787 1.70455 55.403 1.60637 55.2474 1.63987C55.2257 1.6423 55.2136 1.64706 55.1968 1.65445C55.2255 1.66872 55.2589 1.6831 55.2902 1.69504C55.1968 1.73108 55.1561 1.68299 55.0768 1.66619C55.127 1.73562 55.1175 1.72378 55.0743 1.79575C55.0768 1.80527 55.0816 1.81478 55.089 1.82682C55.3046 1.87724 55.5155 1.96125 55.8201 1.92765V1.91084C55.7554 1.84616 55.6065 1.83422 55.53 1.77419H55.501V1.75993C55.7004 1.79586 55.8682 1.88453 56.0047 1.97563C56.0241 1.95882 56.043 1.94699 56.0672 1.93504C56.0144 2.01653 55.9593 2.03819 55.9879 2.122C55.662 2.07159 55.4222 1.95417 55.2951 2.31381C55.331 2.34499 55.3669 2.37384 55.403 2.40491C55.3767 2.41443 55.3505 2.42172 55.3239 2.43133C55.319 2.46019 55.3119 2.48893 55.3071 2.52011C55.4366 2.63985 55.511 2.70241 55.6742 2.76455C55.681 2.82448 55.6908 2.8918 55.7005 2.95648C55.7387 2.99008 55.7387 2.9829 55.7939 2.97328C55.8633 3.04039 55.8154 3.0908 55.8516 3.13402C55.9401 3.2489 56.2782 3.41683 56.3527 3.51988C56.3789 3.55095 56.3574 3.61816 56.4147 3.6542C56.5345 3.73579 56.6762 3.78366 56.7816 3.87719C56.8202 3.89875 56.7911 3.87952 56.7816 3.91788C57.0216 4.03054 57.3908 4.02113 57.592 4.1432C57.6328 4.18388 57.6113 4.15768 57.6088 4.21506C57.8174 4.27266 58.026 4.33004 58.2369 4.38764C58.2489 4.38521 58.2681 4.38046 58.2797 4.37559C58.2944 4.32053 58.2896 4.3181 58.2681 4.26769C58.3928 4.19815 58.424 4.06161 58.515 3.96575C58.4717 3.88649 58.4549 3.87941 58.4693 3.76897C58.642 3.74498 58.6945 3.65145 58.8389 3.61784C58.8219 3.53393 58.8316 3.51459 58.7618 3.48109C58.8028 3.45002 58.7931 3.46439 58.8556 3.48331C58.8723 3.46904 58.8843 3.45224 58.901 3.43765C58.8556 3.3995 58.8075 3.35628 58.762 3.31559H58.7332V3.29879C58.8149 3.32278 58.9011 3.33715 58.9923 3.32278C59.0042 3.31791 59.0162 3.31569 59.0258 3.30608C59.0044 3.28452 58.9852 3.2581 58.9636 3.23168C58.9707 3.22449 58.9752 3.22216 58.9752 3.21741C59.0954 3.28198 59.1671 3.28674 59.3448 3.28927C59.3566 3.24837 59.3687 3.21244 59.3758 3.17175C59.4023 3.16943 59.4264 3.16467 59.4548 3.16203C59.4262 3.19796 59.4023 3.23633 59.3758 3.27469C59.3807 3.28663 59.3878 3.29625 59.3902 3.30597C59.7501 3.38745 59.9968 3.24837 60.3398 3.19078V3.10211C60.7497 2.98459 61.3349 3.2339 61.7351 3.20272C61.8528 3.19574 60.2701 2.18182 58.6086 1.77409Z" fill="#777777"/>
<path d="M40.4612 35.5417C40.6434 35.8436 40.8113 36.2584 41.0463 36.503C41.5426 37.0114 42.3553 37.2872 42.667 37.9391C42.818 38.088 42.9643 38.2342 43.113 38.3783C43.1059 38.4499 43.0963 38.517 43.0866 38.5841C43.113 38.788 43.2062 39.0756 43.1728 39.2961C43.1609 39.3943 43.1247 39.5191 43.1321 39.6293C43.1489 39.6941 43.1657 39.7634 43.1802 39.833C43.1443 40.0392 43.0578 40.2551 43.0532 40.5091C42.9909 40.5357 43.0292 40.5208 42.9453 40.5091C42.9427 40.5834 42.9381 40.6577 42.9332 40.7298H43.0074C42.9909 40.8665 42.9715 41.0053 42.9548 41.1399C42.9714 41.2765 42.9884 41.4154 43.0025 41.5499C42.9835 41.605 42.8971 41.6266 42.8829 41.7079C42.8947 41.7583 42.9068 41.8158 42.9163 41.8614C42.89 42.142 42.8372 42.384 42.7581 42.5423C42.6744 42.7148 42.7604 42.8803 42.6096 42.981C42.6385 43.1967 42.7078 43.312 42.6934 43.5468C42.6335 43.5662 42.6598 43.5612 42.5854 43.5612C42.552 44.0767 42.8084 44.3572 42.6478 44.7362C42.6717 44.748 42.7316 44.8966 42.7077 44.9566C42.5853 45.2945 42.4296 45.6183 42.4008 46.0164C42.3862 46.0069 42.3719 45.995 42.3551 45.9853C42.3551 46.0524 42.3576 46.1219 42.3576 46.1891C42.3119 46.1725 42.2662 46.1557 42.2208 46.1413C42.2161 46.1436 42.2113 46.1511 42.2064 46.1557C42.2354 46.4384 42.3718 46.7432 42.4869 46.9806C42.4751 47.3067 42.2831 47.4072 42.5276 47.7716V47.8363C42.5012 47.8198 42.475 47.8051 42.451 47.7859C42.4006 47.937 42.4822 48.0958 42.4391 48.2677C42.4918 48.3325 42.5519 48.3471 42.6404 48.3781C42.6523 48.3713 42.6693 48.3663 42.6836 48.3616C42.7196 48.1986 42.7003 48.0042 42.6188 47.8798C42.6285 47.8703 42.6405 47.8633 42.6499 47.8508C42.6836 47.8676 42.7219 47.8798 42.7555 47.8964H42.7699C42.7628 47.8293 42.7987 47.8414 42.741 47.8364C42.7506 47.8173 42.7602 47.7957 42.7699 47.7717C42.7938 47.8052 42.8227 47.8344 42.849 47.8677C42.8323 47.887 42.8178 47.9086 42.7986 47.9299C42.8752 47.9804 42.9137 48.153 42.8201 48.1912C42.8466 48.2154 42.8706 48.2345 42.8969 48.2537C42.8536 48.5175 42.9015 48.6996 42.9015 48.9801H42.8729C42.8511 48.8962 42.7889 48.6637 42.8248 48.6419C42.765 48.5628 42.7073 48.5103 42.6068 48.4694C42.5611 48.5389 42.5324 48.6443 42.5203 48.7497C42.5611 48.7881 42.5994 48.8313 42.6427 48.8744C42.6381 48.9463 42.6332 49.0161 42.6284 49.0904H42.5228V49.1045C42.5395 49.1308 42.554 49.1648 42.5684 49.1955C42.5275 49.2268 42.4868 49.2607 42.4488 49.2892C42.4488 49.3109 42.4488 49.3275 42.4488 49.3514C42.4822 49.3732 42.5204 49.3922 42.5541 49.4114C42.5756 49.3921 42.5947 49.3732 42.6165 49.3493C42.6859 49.4114 42.825 49.4332 42.8899 49.5052C42.8706 49.4981 42.8514 49.4954 42.8301 49.4907C42.8515 49.5387 42.8468 49.5171 42.8755 49.5507C42.8611 49.6034 42.8468 49.6512 42.8325 49.7042C42.7773 49.6729 42.77 49.6512 42.679 49.6417V49.6608C42.6933 49.6755 42.7079 49.6921 42.7269 49.7042C42.6982 49.7209 42.6743 49.7379 42.6502 49.7521C42.7317 49.9008 42.7509 50.1286 42.8515 50.2606C42.9236 50.2939 42.993 50.3325 43.0651 50.3708C43.0243 50.354 42.9836 50.3447 42.9427 50.3372V50.3517C42.9595 50.4115 42.9715 50.4764 42.9885 50.5363C43.0149 50.546 43.0411 50.5579 43.0651 50.5674C43.0868 50.5217 43.1057 50.4764 43.1272 50.4283C43.1417 50.4667 43.1561 50.5003 43.173 50.5363H43.1105C43.1058 50.5409 43.1009 50.546 43.0964 50.5529C43.1562 50.6418 43.1681 50.6848 43.1753 50.8118C43.2354 50.7928 43.2955 50.7734 43.3576 50.752C43.3961 50.7879 43.3864 50.7929 43.4487 50.8118L43.4176 50.8743C43.3671 50.8575 43.3168 50.843 43.2664 50.8286C43.2593 50.8383 43.2568 50.848 43.2523 50.8574C43.305 50.9558 43.3865 51.0158 43.4822 51.0733C43.4727 51.0536 43.4631 51.0299 43.4512 51.0108C43.5398 51.0827 43.6213 51.1546 43.7102 51.2265V51.2409C43.6286 51.2074 43.5493 51.1717 43.4656 51.1355C43.5712 51.2651 43.655 51.3081 43.7726 51.3346C43.7678 51.3729 43.7773 51.3393 43.7581 51.3779C43.8756 51.4977 44.3696 51.8236 44.5061 51.7898C44.5012 51.8522 44.5108 51.8067 44.4918 51.8549C44.6356 51.9915 45.1032 52.1664 45.331 52.2215V52.2071C45.2949 52.1688 45.2566 52.1354 45.2231 52.1016C45.3887 52.1543 45.494 52.1087 45.6044 52.2071V52.1449C45.6739 52.1545 45.7458 52.1664 45.8178 52.1737H45.8322C45.8369 52.1666 45.8419 52.1544 45.8466 52.1449V52.1016C45.4294 52.0489 45.2951 51.6869 44.9593 51.5935C44.9761 51.574 44.993 51.5525 45.0076 51.5336C44.9117 51.4303 44.787 51.4377 44.703 51.3345C44.6912 51.3273 44.6814 51.3225 44.6719 51.3199C44.6862 51.308 44.703 51.3006 44.7176 51.291C44.7942 51.3199 44.871 51.351 44.9429 51.3776V51.3653C44.8232 51.2096 44.6264 51.1018 44.6047 50.8429C44.6118 50.8332 44.6165 50.8238 44.6239 50.8117C44.6934 50.7949 44.7653 50.7854 44.835 50.7637C44.8926 50.7207 44.8734 50.632 44.8613 50.5192C44.9596 50.4547 45.166 50.4114 45.2427 50.3227C45.2667 50.2868 45.2667 50.1884 45.2547 50.0899C45.0054 49.9249 44.6385 49.8744 44.7198 49.5054C44.8352 49.4143 44.9934 49.3829 45.1444 49.4453H45.209C45.1874 49.3853 45.209 49.4091 45.1611 49.3806C45.1898 49.3158 45.204 49.3253 45.2666 49.3063C45.2786 49.2103 45.2475 49.1262 45.2211 49.0423C45.2834 48.9487 45.3385 48.9079 45.4945 48.901C45.456 48.8291 45.365 48.8145 45.3099 48.7641C45.3 48.7593 45.2882 48.7521 45.2787 48.7475C45.3146 48.7329 45.3481 48.7138 45.3841 48.6995C45.4634 48.7546 45.4897 48.7883 45.5377 48.8698C45.5759 48.8767 45.6192 48.8816 45.6623 48.8843C45.6741 48.8698 45.691 48.8577 45.7053 48.8386C45.7053 48.7451 45.6982 48.7016 45.6597 48.6541C45.6477 48.642 45.6381 48.6251 45.6287 48.6082C45.571 48.6132 45.5158 48.6182 45.4607 48.625C45.4872 48.6442 45.511 48.6657 45.535 48.6851V48.6994C45.5015 48.6923 45.4654 48.6801 45.4295 48.6705C45.3838 48.6322 45.3815 48.5914 45.2784 48.5626C45.2256 48.4691 45.2232 48.2916 45.1825 48.172C45.2976 48.0327 45.559 48.3204 45.7195 48.3611C45.8395 48.3543 45.9593 48.3495 46.0815 48.3467C46.1079 48.2866 46.1319 48.2315 46.1583 48.172C46.1391 48.1837 46.1174 48.1934 46.0983 48.2031C46.0767 48.1837 46.055 48.1645 46.036 48.1429C46.1079 48.0374 46.2132 47.92 46.1534 47.7713C46.1752 47.7808 46.1967 47.7905 46.216 47.8049H46.2303C46.2207 47.7713 46.2109 47.7401 46.199 47.7113C46.4196 47.7999 47.3954 47.9391 47.6639 47.7857C47.724 47.7547 47.9566 47.4693 48.0427 47.4022C48.0427 47.3302 48.0427 47.2537 48.0427 47.1839C47.9135 47.1385 47.851 47.1314 47.8415 46.9657C47.8822 46.9322 47.9206 46.8938 47.9611 46.8555C47.8988 46.5846 47.6207 46.5556 47.4983 46.3426C47.52 46.3184 47.5415 46.2922 47.5609 46.2656C47.5752 46.2586 47.5894 46.2538 47.6063 46.2467C47.647 46.3134 47.6902 46.3327 47.7142 46.4212C47.8101 46.4406 47.9059 46.4597 48.0043 46.4862C48.0908 46.5437 48.1963 46.7258 48.3112 46.7476C48.4024 46.7667 48.472 46.7069 48.5727 46.7476C48.6446 46.7833 48.695 46.8719 48.8173 46.8554C49.1265 46.8218 49.1814 46.6757 49.3639 46.5485C49.4718 46.503 49.5772 46.455 49.6851 46.4095C49.7618 46.3063 49.8433 46.2035 49.9249 46.1001C50.1288 46.0115 50.3323 45.923 50.5338 45.8363C50.7761 45.6759 50.903 45.3881 51.126 45.2154C51.4065 44.9969 51.7614 44.959 51.8717 44.5632C51.8502 44.5609 51.8285 44.5561 51.807 44.5489C51.8503 44.3952 51.8598 44.1964 51.9436 43.9852C52.0084 43.8197 53.0848 43.2757 53.3629 43.3573C53.423 43.4028 53.4828 43.4533 53.5452 43.4962C53.5547 43.4626 53.5694 43.4267 53.5765 43.3933C53.5547 43.386 53.5357 43.381 53.5143 43.3717V43.3572C53.6507 43.3235 53.7899 43.1172 53.9264 43.1629C53.9744 43.1149 53.9768 43.1339 53.9264 43.0837V43.0381C54.2163 43.0358 54.7609 43.1507 55.0317 43.2804C55.0579 43.2395 55.0558 43.2395 55.1085 43.2204C55.0941 42.9785 55.384 43.0714 55.564 42.9877C55.6815 42.899 55.691 42.6136 55.8688 42.5273C56.1563 42.3836 56.1422 42.2925 56.3434 42.1582C56.4319 42.103 56.5161 42.1078 56.5712 42.0218C56.7774 41.6907 56.6383 41.5422 57.0604 41.3885C57.1301 41.1608 57.1853 40.9811 57.317 40.8157C57.384 40.7413 57.4511 40.6646 57.5159 40.5879C57.5881 40.3842 57.5422 40.2138 57.6213 40.0317C57.7055 39.8304 57.8805 39.7008 57.8971 39.4442C58.0842 39.346 58.2496 39.3795 58.4319 39.25C58.6933 39.0247 58.9522 38.7943 59.2137 38.5664C59.3047 38.5474 59.3979 38.5306 59.4891 38.5115C59.6066 38.4206 59.724 38.3293 59.8417 38.2358C60.2635 37.9626 60.6086 37.7228 60.7741 37.1904C60.7764 37.0872 60.7838 36.9842 60.7886 36.8787C60.8342 36.6846 61.0621 35.4233 61.0594 35.4233C49.2314 35.3977 40.4612 35.5417 40.4612 35.5417ZM50.9721 2.51744C51.1639 2.54386 51.4181 2.57261 51.6292 2.66614C51.8426 2.76189 51.8954 2.89864 52.1254 2.93457C52.0751 2.97061 52.0461 2.94895 51.9719 2.93236C52.027 3.02578 52.0846 3.07608 52.2166 3.09289C52.1949 3.10483 52.1757 3.11455 52.1542 3.12417C52.2141 3.17934 52.2526 3.22246 52.3365 3.25839H52.3988C52.3796 3.19604 52.3918 3.21284 52.3413 3.18156V3.16972C52.7826 3.31345 53.1878 3.62522 53.6959 3.70416C53.7199 3.63737 53.6862 3.6732 53.7582 3.66115V3.64678C53.6095 3.44788 53.2571 3.2345 53.0152 3.13389C53.0081 3.11698 53.0055 3.09543 53.0006 3.07619C53.0965 3.1266 53.1925 3.17691 53.2885 3.22964V3.16972C53.564 3.33025 53.8806 3.52693 54.1562 3.68514C54.1827 3.68028 54.2089 3.67552 54.2331 3.6732H54.2618C54.2618 3.67087 54.2641 3.66369 54.2641 3.65893C54.1657 3.59425 54.1154 3.60387 54.0505 3.50548C54.0939 3.52461 54.1323 3.53919 54.1754 3.55335C54.1802 3.55568 54.1849 3.55568 54.1921 3.55568C54.1943 3.50062 54.1827 3.491 54.1441 3.43826C54.1489 3.42875 54.156 3.41681 54.1607 3.40962C54.1969 3.43351 54.1875 3.42378 54.2064 3.46468C54.3 3.4576 54.271 3.44788 54.3144 3.39525C54.3386 3.45517 54.3406 3.45517 54.3886 3.48635H54.4054C54.3959 3.46468 54.3839 3.44577 54.3742 3.42865H54.4822C54.4822 3.4167 54.4822 3.40973 54.4848 3.39757C54.3934 3.34251 54.3168 3.28005 54.1946 3.24412C54.1876 3.23472 54.1851 3.22499 54.1781 3.21538C54.2092 3.21305 54.2403 3.2083 54.2713 3.20586V3.18917C54.1876 3.1172 53.9166 2.90139 53.7225 2.93024C53.7272 2.84147 53.6792 2.72405 53.5738 2.6951H53.6959C53.7032 2.68315 53.7057 2.67607 53.7129 2.66413C53.6935 2.6449 53.6721 2.62566 53.6503 2.60643C53.8517 2.62312 54.0268 2.78144 54.2017 2.79116C54.1394 2.99027 54.5326 3.04776 54.6695 3.15556C54.7724 3.14108 54.7652 3.10768 54.8395 3.09807C54.8253 3.08834 54.8107 3.0764 54.7965 3.06689C54.818 3.02123 54.8033 3.04047 54.8422 3.01183C54.9211 3.04301 54.9956 3.07175 55.0698 3.03106V3.08856C55.1081 3.09099 55.1418 3.09099 55.1777 3.09099C55.1638 3.07186 55.147 3.0503 55.1323 3.03106C55.1803 3.00707 55.137 3.02145 55.1921 3.03339C55.2115 3.02863 55.2258 3.02388 55.2403 3.02134C55.2208 2.99027 55.2018 2.95909 55.1776 2.93045C55.3168 2.96395 55.372 2.95909 55.4847 2.9351C55.4463 2.80807 55.2759 2.75533 55.1227 2.76485C55.1012 2.72648 55.1324 2.74572 55.1657 2.72648C55.1153 2.72416 55.0652 2.7193 55.0148 2.7193C54.9618 2.69531 54.9211 2.60178 54.7559 2.59702C54.7869 2.56584 54.7606 2.58022 54.8183 2.56817C54.7656 2.51786 54.6216 2.44114 54.5282 2.44589C54.5187 2.43649 54.509 2.42698 54.4996 2.41725C54.5185 2.40753 54.5402 2.39802 54.5595 2.39083C54.3986 2.35733 54.358 2.31178 54.2524 2.36695C54.1587 2.29508 54.1687 2.24943 54.0102 2.23262C54.0223 2.21825 54.032 2.20388 54.0415 2.1894C53.9195 2.15843 53.7993 2.12715 53.6771 2.0983V2.0815C53.7059 2.07452 53.7369 2.06955 53.7708 2.06702C53.7731 2.01196 53.7778 2.02876 53.754 1.98321C53.8689 2.01196 53.9794 2.04313 54.0921 2.06945C54.1015 2.06226 54.1111 2.05275 54.1208 2.04313C54.0539 1.97359 53.9505 1.93523 53.8477 1.93755C53.8521 1.92561 53.8594 1.91113 53.8619 1.89444C53.9196 1.91113 53.9768 1.92551 54.0298 1.93755C54.0371 1.93534 54.0418 1.93058 54.0466 1.92804V1.88249C53.9123 1.78167 53.8811 1.77924 53.6677 1.78896C53.7155 1.72682 53.7323 1.74341 53.8212 1.7338C53.8212 1.72904 53.8212 1.72693 53.8235 1.71953C53.6651 1.60444 53.435 1.6595 53.2745 1.5683C53.2721 1.5683 53.1331 1.40533 53.109 1.39318C52.9941 1.3286 52.6055 1.24702 52.5313 1.24469C52.5433 1.23032 52.5529 1.21584 52.5647 1.20168C52.416 1.13446 52.2701 1.08638 52.1092 1.01229H52.2338V0.998026C52.1594 0.885262 51.469 1.17293 51.3371 1.34562C51.2916 1.3192 51.6223 1.60211 51.5314 1.5852C51.5217 1.59958 51.5097 1.61406 51.5001 1.626H51.4691C51.5121 1.7004 51.8334 1.6836 51.9102 1.68592C51.9151 1.69797 51.9198 1.70505 51.927 1.7171C51.8671 1.74584 51.8504 1.69797 51.7712 1.71477H51.7424C51.7853 1.82257 51.8813 1.79869 51.9843 1.76043C51.9989 1.7989 52.0133 1.83715 52.0324 1.87784C51.9629 1.8492 51.9245 1.8492 51.8334 1.84677C51.8646 1.95003 52.0492 1.96905 52.1786 1.9811C52.1833 1.95954 52.1906 1.93787 52.1955 1.92107C52.1451 1.91156 52.0921 1.8994 52.0444 1.89232C52.0515 1.86115 52.0564 1.8324 52.0612 1.80386C52.1524 1.83494 52.1955 1.88757 52.3178 1.90934C52.3442 1.98374 52.3682 2.06279 52.3897 2.1373C52.1499 2.16594 51.9101 2.19479 51.668 2.21867C51.6632 2.2284 51.6585 2.23801 51.6534 2.24752C51.7016 2.29794 51.7543 2.3457 51.8021 2.39622V2.41059C51.6344 2.36018 51.4521 2.40098 51.2962 2.37709C50.963 2.31939 50.7112 2.14438 50.3781 2.34327C50.3852 2.35775 50.3922 2.36737 50.3949 2.38639C50.4902 2.55834 50.7803 2.49102 50.9721 2.51744ZM40.9263 13.2898C41.0366 13.3808 41.3625 13.1937 41.5207 13.1937C41.5903 13.2872 41.7366 13.6539 41.8228 13.6708C41.9474 13.9584 41.5974 14.1047 41.6334 14.3253C41.643 14.3325 41.6526 14.3348 41.6624 14.3395C41.7246 14.2868 41.7149 14.2892 41.6983 14.2197C41.7077 14.2102 41.7174 14.2078 41.727 14.203C41.7557 14.2845 41.7199 14.2678 41.8037 14.275C41.7461 14.318 41.6887 14.3611 41.6334 14.4045C41.607 14.4667 41.648 14.6155 41.6624 14.7497C41.6862 14.764 41.7128 14.7738 41.739 14.7833C41.7487 14.7641 41.7581 14.7378 41.7679 14.7187C41.7726 14.7307 41.7775 14.7379 41.7846 14.7498C41.7246 14.8243 41.7199 14.8577 41.6743 14.9344C41.7128 14.9416 41.6984 14.9344 41.7391 14.9176C41.7728 14.9728 41.7895 15.004 41.768 15.0857C41.775 15.3205 42.0174 15.3205 41.9045 15.5677C41.9885 15.6946 42.2617 15.6131 42.3289 15.6203C42.3289 15.4309 42.571 15.2343 42.6526 15.0472C42.7581 14.8123 42.6576 14.4862 42.6576 14.1937C42.6862 14.184 42.7198 14.1721 42.751 14.1601C42.7175 13.9466 42.6791 13.726 42.6479 13.5078C42.7247 12.6782 43.3886 12.4745 44.0528 12.2755C44.3646 12.182 44.2471 11.9135 44.8224 12.0286C44.9661 11.7577 45.4481 11.8081 45.731 11.7408C45.7383 11.7288 45.7431 11.7169 45.748 11.7097C45.688 11.6689 45.7023 11.6904 45.6712 11.6186V11.6019C45.748 11.5515 45.9804 11.5131 46.0715 11.5155C46.1026 11.4699 46.1267 11.4315 46.1506 11.3956C46.1026 11.3167 45.9924 11.2781 45.8726 11.2733V11.2542C45.9733 11.2733 46.0694 11.2877 46.1676 11.3021C46.1676 11.3428 46.1676 11.3813 46.1676 11.4244C46.1772 11.4172 46.2107 11.1031 46.2203 10.9424C46.1867 10.9328 46.1556 10.9209 46.1268 10.9136C46.0812 10.8799 46.1172 10.9018 46.1125 10.837C46.1078 10.7746 46.2204 10.6188 46.2706 10.5517C46.225 10.5157 46.2659 10.2688 46.2732 10.1922C46.3475 10.1297 46.4194 10.0652 46.4913 10.0003C46.3163 10.2471 46.405 10.2471 46.3475 10.5374C46.3931 10.5516 46.4386 10.5661 46.4842 10.5853C46.3954 10.6596 46.3043 10.6956 46.2515 10.8105C46.2444 10.8178 46.2396 10.8274 46.2372 10.837C46.2659 10.861 46.2541 10.8585 46.314 10.8681C46.4004 10.6834 46.7599 10.5588 46.9207 10.2998C46.8223 10.1992 46.8632 10.1392 46.8318 10.0025C46.9013 10.0671 46.9302 10.1221 47.0454 10.1512C47.026 10.1775 47.002 10.2015 46.983 10.2278V10.2399C47.2203 10.2734 47.5418 9.96413 47.6521 9.79873C47.6329 9.73891 47.6521 9.76999 47.6063 9.73627C47.6017 9.72433 47.5969 9.71725 47.5923 9.7052C47.8678 9.6717 48.2633 9.75308 48.5654 9.71947C48.539 9.68829 48.5127 9.65955 48.4887 9.62604C48.2562 9.65944 48.0499 9.56612 47.8221 9.61886C48.0954 9.40305 48.9274 9.7052 49.2944 9.56623C49.335 9.66451 49.4213 9.65743 49.6012 9.66451C49.6203 9.63344 49.642 9.60459 49.6634 9.57341C49.6492 9.55185 49.6348 9.523 49.6179 9.49901C49.5819 9.5806 49.6132 9.58536 49.5245 9.58536C49.4837 9.58292 49.4405 9.57331 49.3998 9.56855C49.3781 9.47502 49.4116 9.35275 49.2463 9.32411V9.29525C49.323 9.27613 49.3949 9.25932 49.4693 9.24262C49.4477 9.20902 49.4261 9.1826 49.4071 9.15152C49.5126 9.02217 49.7284 8.95485 49.8266 8.85899C50.0686 8.90697 50.2245 8.90211 50.462 8.77032C50.5002 8.81334 50.4929 8.8015 50.4929 8.85899C50.7903 8.83754 51.0756 8.86132 51.3898 8.77751C51.3753 8.74644 51.361 8.71748 51.3465 8.68641C51.3824 8.68419 51.5408 8.74147 51.5909 8.75341C51.826 8.80139 52.2815 8.75341 52.4782 8.68884C52.4853 8.69592 52.4949 8.70776 52.5046 8.71991C52.4327 8.73915 52.3607 8.75595 52.2889 8.77275C52.2841 8.77984 52.2794 8.79178 52.2745 8.8015C52.356 8.8182 52.44 8.83986 52.519 8.85656C52.224 8.90211 51.9317 8.94988 51.6367 8.99321C51.632 9.00262 51.6272 9.01244 51.6223 9.02206C51.6559 9.01255 51.692 9.00526 51.7302 8.99564C51.7084 9.00536 51.6871 9.01255 51.6677 9.02206C51.5936 9.11559 51.572 9.11792 51.572 9.27613C51.6008 9.27613 51.6344 9.27612 51.6631 9.27835C51.7254 9.36215 51.6873 9.41499 51.8022 9.41742C52.0157 9.42715 52.2171 9.28807 52.4568 9.27369C52.4855 9.20912 52.4568 9.1994 52.5312 9.17298C52.5455 9.18746 52.5528 9.20183 52.5646 9.2161C52.5841 9.1994 52.6054 9.17763 52.6245 9.15861C52.6463 9.25689 52.6918 9.25689 52.7804 9.2831C52.91 9.14888 53.7324 9.31903 53.9745 9.25203C53.984 9.25435 53.9938 9.25435 54.0057 9.25435C53.9575 9.20394 53.917 9.18957 53.8185 9.18703C53.8594 9.16061 53.8689 9.17255 53.8954 9.12711C54.0872 9.19433 54.2908 9.15374 54.5452 9.15607V9.10809C54.5596 9.01931 54.4203 8.94259 54.3172 8.9354V8.9187C54.3579 8.87083 54.401 8.82042 54.442 8.77244C54.4057 8.71959 54.4109 8.74845 54.4109 8.68377C54.3819 8.67405 54.3482 8.66929 54.3172 8.662C54.1638 8.74105 53.8162 8.82031 53.8043 9.03612C53.6963 9.05038 53.6411 9.04563 53.6339 8.92103C53.2814 8.9595 53.14 8.77952 52.8476 8.74612C52.8261 8.7196 52.8045 8.69339 52.7854 8.66929C52.807 8.66929 52.8262 8.66929 52.8476 8.67151C52.8547 8.65946 52.8572 8.64752 52.8643 8.64054C52.7708 8.60451 52.6774 8.56604 52.5863 8.52778C52.5384 8.4966 52.4881 8.35287 52.4496 8.2808C52.4736 8.26399 52.4999 8.24476 52.5263 8.22563C52.4856 8.18727 52.4425 8.17775 52.3583 8.17532V8.14647C52.5216 8.12248 52.596 8.03614 52.7469 7.97865C52.7564 7.95698 52.7686 7.94018 52.7781 7.92115V7.90435C52.6174 7.95223 52.4833 7.92358 52.2532 7.92115C52.2221 7.81071 52.1428 7.76992 52.0206 7.74857C52.0158 7.73906 52.011 7.72934 52.0039 7.7174C52.2148 7.73917 52.2891 7.82773 52.4689 7.8494C52.6296 7.83027 52.7879 7.81082 52.9509 7.78958C52.9509 7.77521 52.9509 7.7583 52.9509 7.74646C52.9989 7.71285 52.9556 7.71053 52.9341 7.65536C52.9583 7.66244 52.9773 7.66973 52.9962 7.67206V7.65779C52.62 7.15178 51.2988 7.33176 50.7259 7.43226C50.5005 7.47527 50.3397 7.68886 50.028 7.68886C50.1623 7.56183 50.9726 7.25736 51.227 7.17809C51.227 7.17809 51.7353 7.21656 51.7664 7.20927C51.8119 7.15886 51.8598 7.10866 51.9053 7.06057C52.1164 6.95034 52.423 6.99336 52.6966 7.06533C53.0538 7.16615 53.387 7.20208 53.7397 7.32446C53.96 7.39876 54.624 7.66963 54.852 7.63126C55.0271 7.60727 55.1876 7.54978 55.3483 7.48257C55.7221 7.33155 56.4678 7.71761 56.7244 7.43469C56.7435 7.38196 56.7365 7.42994 56.7078 7.36029C56.7173 7.36505 56.727 7.37223 56.7388 7.3771C56.7845 7.30269 56.7366 7.05582 56.7894 6.97423C56.7004 6.94062 56.6117 6.90479 56.528 6.87351C56.5303 6.83039 56.528 6.86411 56.5424 6.81359C56.3843 6.80165 56.3723 6.76328 56.2668 6.76804C56.2356 6.59313 56.0727 6.52592 55.883 6.50193V6.48523C56.0173 6.50193 56.1491 6.51641 56.2836 6.53078C56.2114 6.42763 56.0412 6.41569 56.0222 6.31275C55.895 6.2839 55.7846 6.30557 55.6814 6.23825C55.6264 6.20221 55.6405 6.19745 55.6384 6.14725C55.5739 6.1016 55.406 6.11597 55.3461 6.06334C55.2763 6.00352 55.2646 5.94836 55.1615 5.90524C55.1424 5.84035 55.1231 5.88125 55.1777 5.83337C55.1662 5.8022 54.8951 5.60552 54.7799 5.58417C54.8234 5.54105 54.8041 5.55775 54.857 5.55289C54.8687 5.51928 54.8638 5.43315 54.8737 5.31806C54.8402 5.30369 54.804 5.28445 54.7657 5.27018C54.7563 5.26553 54.7993 5.1887 54.7993 5.09042C54.6623 5.03525 54.5091 4.98251 54.5259 4.81712H54.4488C54.3577 4.67561 54.0054 4.22719 54.0125 4.08325C53.636 4.18397 53.1543 4.78584 52.641 4.37578C52.5548 4.38297 52.4946 4.25129 52.3365 4.2199C52.327 4.17668 52.3245 4.13609 52.3198 4.09044C52.2862 4.08325 52.2502 4.07849 52.2141 4.07363C52.2598 3.9465 52.3077 3.9298 52.2956 3.7643C52.3531 3.74496 52.4107 3.72361 52.4659 3.69465C52.4517 3.6732 52.4395 3.64678 52.4229 3.62511C52.3749 3.64192 52.3271 3.66104 52.2837 3.67795C52.1829 3.56519 51.96 3.51964 51.7777 3.46923C51.7753 3.45729 51.7683 3.44777 51.7658 3.44038V3.42357C51.797 3.39715 51.7875 3.40212 51.8425 3.39493V3.38045C51.725 3.27488 51.478 3.09025 51.3295 3.04237C51.2001 3.04459 51.0728 3.04713 50.9459 3.04945C50.6246 2.94155 50.3273 2.81674 50.0012 2.82879C49.9701 2.85764 49.9391 2.88638 49.9077 2.91502C49.9005 2.93415 49.8958 2.95106 49.8909 2.97251C49.9174 3.01098 49.9126 3.01098 49.9654 3.03001C49.9005 3.11635 49.8165 3.14975 49.6848 3.17405C49.807 3.31546 49.7206 3.32973 49.7878 3.42104C49.74 3.47134 49.3732 3.61507 49.2292 3.61972C49.2125 3.64625 49.1981 3.67499 49.1811 3.70363C49.3779 3.76842 49.5433 3.91215 49.5529 4.15681C49.3901 4.50916 49.0184 4.56908 48.5772 4.64348C48.4165 4.65067 48.2606 4.65299 48.1 4.65775H48.0713C48.0832 4.72486 48.0641 4.81374 48.1576 4.8447C48.0737 5.00302 47.9058 5.19008 48.0185 5.36984C47.9393 5.4323 47.8268 5.51368 47.7236 5.51368C47.7236 5.55669 47.7236 5.60235 47.7212 5.64547C47.7022 5.6479 47.683 5.65265 47.6613 5.66238C47.6567 5.60488 47.6278 5.61197 47.6015 5.5401C47.4768 5.5569 47.4071 5.60964 47.3256 5.66238C47.2705 5.63363 47.2224 5.61197 47.1722 5.58787C47.1218 5.34596 46.966 5.20191 46.8628 4.97892C46.9418 4.90452 47.009 4.84946 47.0691 4.75846C47.0666 4.72 47.0595 4.68174 47.0546 4.64316C47.1432 4.55227 47.2392 4.51381 47.3062 4.39396C46.992 4.36997 46.0788 4.08949 45.8966 3.91204C45.8317 3.85445 45.8173 3.71537 45.7214 3.64339C45.58 3.57872 45.4387 3.51404 45.2993 3.44693C45.1412 3.44915 44.9829 3.45401 44.8247 3.45633H44.7938C44.9063 3.34135 44.9759 3.17331 45.067 3.0392C44.9878 2.99841 44.8776 2.99355 44.7481 2.99841C44.7481 2.97695 44.7481 2.95539 44.7503 2.92897C45.0501 2.58106 46.014 2.2266 46.4238 2.25027C46.4048 2.23125 46.3808 2.20715 46.3639 2.18316C46.5128 2.19511 46.6756 2.21434 46.8362 2.19299C46.8914 2.11616 46.8841 2.11616 46.8266 2.04905H46.7956V2.03996C47.033 2.11172 47.8384 2.09978 48.2053 1.91272C48.2559 1.87911 48.2223 1.89845 48.2053 1.85755C48.3661 1.82162 48.5266 1.78812 48.6849 1.75219H48.7137C48.7137 1.74975 48.716 1.745 48.716 1.73771C48.6849 1.71382 48.6681 1.70664 48.608 1.69924C48.6058 1.69226 48.5985 1.68021 48.5962 1.6706C48.7017 1.68 48.8096 1.6873 48.9149 1.69691C48.9149 1.77596 49.1404 1.9198 49.2436 1.95098C49.2769 1.91747 49.2507 1.94633 49.2625 1.91029C49.2674 1.90321 49.2719 1.89835 49.2769 1.89591C49.2361 1.89824 49.2579 1.8937 49.2123 1.91029C49.1883 1.85047 49.1787 1.8455 49.1116 1.79763V1.78315C49.162 1.80482 49.2123 1.82881 49.2626 1.85269C49.258 1.812 49.2532 1.76645 49.2508 1.72576C49.3107 1.76645 49.3704 1.80957 49.4303 1.85037V1.80957C49.6919 1.74489 49.9364 1.75208 50.1351 1.69691C50.0994 1.65126 50.0561 1.61057 50.0177 1.56745C50.0298 1.55783 48.5913 0.766685 46.9154 0.790569C45.8362 0.812129 41.9475 2.14258 38.8787 3.69159C36.5337 4.88063 34.7285 6.3601 34.6206 6.46557C33.683 7.28082 32.7841 8.27805 32.3118 9.49848C32.2542 9.5583 32.2038 9.62076 32.1488 9.68544C32.108 9.7647 31.8395 10.4672 31.8371 10.4981C31.8826 10.5006 31.9256 10.5053 31.9688 10.5102C31.9402 10.7165 32.0648 10.7186 32.0119 10.9777C31.9282 11.342 31.6692 11.7881 31.5517 12.1909C31.53 12.2748 31.4438 12.4786 31.4678 12.5866C31.4942 12.7233 31.5468 12.9078 31.4942 13.0854C31.4343 13.1837 31.379 13.2845 31.3216 13.385C31.2497 13.385 31.223 13.4043 31.1465 13.3804C31.1417 13.3804 31.137 13.385 31.1322 13.385C31.1107 13.5912 31.1874 13.7135 31.1755 13.8933C31.2186 13.8911 31.2043 13.8933 31.2451 13.8695C31.3697 14.1859 31.3098 14.5382 31.0723 14.7661C31.1419 15.0657 31.3003 15.2337 31.2426 15.6964V15.7108C31.2546 15.7155 31.2641 15.718 31.2737 15.7201C31.5471 15.4349 31.4775 15.471 31.5037 15.1065C31.4966 15.073 31.4847 15.0371 31.4751 15.0059C31.4485 15.0323 31.4269 15.0609 31.4055 15.0898C31.3984 15.0944 31.3936 15.0969 31.3885 15.0969C31.3503 14.8572 31.59 14.2696 31.6379 14.0204C31.6692 13.8596 31.5803 13.5768 31.6237 13.3849C31.7267 12.9318 31.777 11.9512 32.1535 11.6657C32.1703 11.6995 32.1918 11.7328 32.211 11.764C32.2302 11.7546 32.2469 11.7424 32.2685 11.7257C32.3477 11.9943 32.0191 12.3899 32.0598 12.7422C31.9759 12.8045 31.9375 12.8454 31.8873 12.9365C31.8993 12.946 31.9138 12.9605 31.9306 12.9748C31.957 12.946 31.988 12.9126 32.0167 12.8862C32.0144 12.9748 31.9688 13.2626 32.0552 13.3513C32.0816 13.3872 32.0552 13.3681 32.1031 13.3585C32.1126 13.3679 32.1223 13.3752 32.1295 13.3871C32.0815 13.4877 32.0408 13.5429 32.0431 13.7012C32.072 13.7276 32.0598 13.7276 32.1151 13.7349C32.1007 13.7996 32.086 13.862 32.072 13.9242C32.0959 13.9194 32.1198 13.9171 32.1437 13.9147C32.1437 14.1184 32.0646 14.1807 31.9687 14.3199C31.9952 14.5044 32.0766 14.5524 32.1559 14.689C32.0983 14.7515 32.1008 14.7899 32.0839 14.8833C32.2302 15.08 32.4172 16.4273 32.1391 16.6264C32.072 16.7221 32.0693 16.703 32.1079 16.7941C32.0598 16.8613 32.0313 16.8564 31.964 16.878C31.7506 17.3958 32.211 17.5325 32.2229 17.9547C32.2542 17.9714 32.2877 18.0002 32.3235 18.0242C32.3235 18.0242 34.0259 17.9643 35.0376 17.9425C35.0762 17.9403 34.9634 17.9041 34.9131 17.8635C34.8699 17.8251 34.671 16.7916 34.7068 16.6479C34.7452 16.5927 34.7789 16.5399 34.8123 16.4825C34.6612 16.1612 34.889 15.8254 35.0209 15.5331C35.124 15.2815 35.2319 15.0272 35.3325 14.7733C35.4309 14.6509 35.6178 14.6845 35.6777 14.4687C35.7138 14.3225 35.649 14.1907 35.7235 14.006C35.7907 13.8383 35.973 13.7877 35.9608 13.5744C36.0591 13.5864 36.2295 13.5096 36.2464 13.4258C36.2631 13.4017 36.2775 13.3754 36.2943 13.3466C36.2967 13.4091 36.2989 13.3873 36.2775 13.4402C36.3519 13.4042 36.323 13.3946 36.3661 13.4017C36.3877 13.3754 36.4068 13.3466 36.4285 13.3203C36.4118 13.2989 36.3974 13.2747 36.3828 13.2533C36.6466 13.2772 36.8409 13.1741 37.0685 13.0423C37.2078 13.0782 37.1574 12.9753 37.1452 12.8986C37.1789 12.8577 37.2149 12.8435 37.2676 12.8122C37.2699 12.8218 37.2747 12.8265 37.2794 12.8314C37.2604 12.853 37.2389 12.8745 37.2221 12.8937C37.2389 12.9031 37.2604 12.9105 37.2794 12.9225C37.3442 12.973 37.5865 12.8434 37.7304 12.8577C37.8718 12.8722 38.1764 12.9899 38.2844 13.0471C38.2987 13.0448 38.3131 13.0448 38.3298 13.0448V12.9849C38.294 12.9801 38.2604 12.9778 38.2244 12.9754C38.2197 12.9609 38.2149 12.9465 38.2076 12.9297C38.251 12.9179 38.289 12.9058 38.3323 12.8915C38.3444 12.9465 38.4307 13.0353 38.4786 13.0928C38.4691 13.0975 38.4594 13.1048 38.45 13.1096C38.4405 13.1263 38.4284 13.1432 38.4213 13.16C38.4691 13.1936 38.517 13.2344 38.5675 13.2703C38.6393 13.2415 38.7089 13.2104 38.7808 13.1839C38.7879 13.2175 38.7975 13.2535 38.8073 13.2871C38.9127 13.2584 38.9224 13.2009 38.9894 13.1409C39.0519 13.2057 39.0999 13.2992 39.1836 13.3399C39.198 13.347 39.2147 13.3591 39.2291 13.3686H39.2484C39.2677 13.3422 39.2868 13.3135 39.306 13.2871C39.2556 13.2415 39.2055 13.1936 39.1599 13.1456C39.1479 13.1385 39.1382 13.1265 39.1265 13.117C39.1694 13.0619 39.2056 13.0472 39.2941 13.0308C39.3205 12.9781 39.3132 12.9781 39.3108 12.8941C39.2701 12.9182 39.227 12.9398 39.1885 12.9637H39.1743C39.1646 12.9469 39.1552 12.9374 39.143 12.9181C39.378 12.7694 39.6562 12.8053 39.9007 12.8533C39.9151 12.8125 39.9295 12.779 39.9463 12.743C39.9632 12.7334 39.9776 12.7238 39.9944 12.7095C39.9896 12.7742 39.9896 12.8437 39.9896 12.9061C40.3324 12.9468 40.5843 12.8126 40.8382 13.0812C40.8999 13.1483 40.8976 13.2611 40.9263 13.2898Z" fill="#777777"/>
<path d="M51.3294 1.72632C51.2599 1.75031 51.195 1.7743 51.1279 1.79596C51.1206 1.82228 51.116 1.84638 51.111 1.87026V1.88484C51.219 1.94001 51.545 2.00934 51.6913 1.93039C51.7225 1.90165 51.7538 1.87533 51.7824 1.84405V1.7985C51.6389 1.76468 51.5284 1.72632 51.3294 1.72632Z" fill="#777777"/>
<path d="M52.1376 1.77417C52.1641 1.80535 52.1376 1.78622 52.181 1.80535C52.1665 1.7934 52.152 1.78622 52.1376 1.77417Z" fill="#777777"/>
<path d="M49.6272 2.37837C49.5527 2.34012 49.4521 2.31623 49.3562 2.32564C49.3731 2.28727 49.3874 2.24637 49.4042 2.21055C49.2844 2.13372 49.0446 2.06428 48.9679 1.95162C48.9129 1.89878 48.9725 1.82681 48.8816 1.78369C48.8697 1.79817 48.86 1.81254 48.8504 1.82681C48.57 1.79806 48.2512 1.93957 48.1671 2.12653C48.0233 2.1242 47.8914 2.1242 47.817 2.18413C47.8962 2.24394 48.107 2.22471 48.2125 2.22725C48.1908 2.24141 48.1692 2.25599 48.1478 2.27026C48.1333 2.29901 48.1167 2.32786 48.1022 2.3566C48.3251 2.39729 48.685 2.33261 48.8383 2.23919C48.9246 2.26307 49.0085 2.28717 49.0948 2.31126C49.0708 2.31845 49.0444 2.32807 49.018 2.34012C49.1621 2.46239 49.4137 2.46472 49.6895 2.4551C49.6702 2.42868 49.6512 2.40712 49.6272 2.37837Z" fill="#777777"/>
<path d="M48.8647 1.91333C48.8481 1.89896 48.8335 1.88469 48.8169 1.86768C48.8074 1.89885 48.7976 1.9276 48.7857 1.95169C48.8217 1.93975 48.8576 1.9277 48.8936 1.91323H48.8647V1.91333Z" fill="#777777"/>
<path d="M52.9358 2.41901C52.9909 2.38551 52.9766 2.42388 52.967 2.36395C52.7753 2.35677 52.8088 2.27518 52.6625 2.2439C52.6288 2.26567 52.5906 2.28247 52.5546 2.29917C52.5811 2.36385 52.5811 2.37114 52.5523 2.42631C52.7513 2.41912 52.8136 2.43328 52.9957 2.46699C52.9765 2.45262 52.9549 2.43825 52.9358 2.41901Z" fill="#777777"/>
<path d="M54.2377 2.29663C54.2329 2.30392 54.2282 2.31343 54.2232 2.32073H54.252C54.2471 2.31354 54.2447 2.30403 54.2377 2.29663Z" fill="#777777"/>
<path d="M53.0294 2.40942C53.0535 2.43827 53.0294 2.4165 53.0752 2.43827C53.0583 2.42855 53.0438 2.41682 53.0294 2.40942Z" fill="#777777"/>
<path d="M48.6181 2.46948C48.5342 2.4959 48.4504 2.51746 48.3712 2.53913C48.3735 2.57252 48.3759 2.60613 48.3807 2.63974C48.6132 2.61575 48.8268 2.63023 49.0279 2.57009C49.0327 2.56301 49.0375 2.5534 49.0425 2.53892C48.9034 2.51514 48.7596 2.49104 48.6181 2.46948Z" fill="#777777"/>
<path d="M50.3464 2.48389V2.52711C50.3777 2.52944 50.4158 2.52944 50.4544 2.52944V2.51527C50.4159 2.50312 50.3823 2.49593 50.3464 2.48389Z" fill="#777777"/>
<path d="M52.5764 2.72364C52.5381 2.63486 52.4252 2.58466 52.3224 2.55835C52.3246 2.59196 52.3296 2.62778 52.3319 2.65907H52.1953C52.1976 2.66847 52.2073 2.67809 52.2122 2.68771C52.3631 2.70683 52.4879 2.72617 52.6053 2.76697C52.5958 2.75228 52.5861 2.73801 52.5764 2.72364Z" fill="#777777"/>
<path d="M50.0829 2.57007C50.0781 2.58212 50.0709 2.5893 50.0661 2.59892C50.102 2.62767 50.1354 2.65652 50.1717 2.68516C50.2197 2.68991 50.2651 2.69234 50.3108 2.69953C50.3154 2.69234 50.3202 2.69002 50.325 2.68516C50.325 2.67311 50.325 2.65641 50.3275 2.63961C50.2459 2.61826 50.1646 2.59184 50.0829 2.57007Z" fill="#777777"/>
<path d="M50.5722 2.61566C50.5218 2.60372 50.4693 2.59653 50.4211 2.58691C50.4475 2.65159 50.4882 2.66375 50.5408 2.70211H50.6007C50.6055 2.69482 50.6127 2.6852 50.6153 2.67315C50.6009 2.6517 50.589 2.63246 50.5722 2.61566Z" fill="#777777"/>
<path d="M49.4668 2.74292C49.4163 2.75962 49.3636 2.77632 49.3132 2.79566C49.3014 2.81965 49.2916 2.83634 49.2795 2.85547C49.2964 2.87703 49.3084 2.90356 49.3227 2.92977C49.4378 2.94668 49.4977 2.882 49.6009 2.8579C49.6177 2.83878 49.6344 2.81943 49.6489 2.79566C49.596 2.7668 49.5626 2.74524 49.4668 2.74292Z" fill="#777777"/>
<path d="M51.7924 2.82666C51.7901 2.83871 51.7901 2.84589 51.7901 2.85784C51.8069 2.85287 51.8235 2.84579 51.8405 2.84346V2.82899C51.8259 2.8292 51.8069 2.8292 51.7924 2.82666Z" fill="#777777"/>
<path d="M51.0851 2.93945C51.1162 2.98268 51.1547 2.98997 51.2074 3.0091H51.2672C51.229 2.97295 51.1546 2.9515 51.0851 2.93945Z" fill="#777777"/>
<path d="M58.6563 3.28223C58.6806 3.3134 58.6563 3.28941 58.7046 3.3134C58.6756 3.28223 58.7046 3.30146 58.6563 3.28223Z" fill="#777777"/>
<path d="M49.5317 3.17456C49.5436 3.18397 49.5509 3.19115 49.5604 3.2032H49.6515C49.6515 3.19612 49.6539 3.19136 49.6539 3.1864C49.6132 3.18397 49.5746 3.17678 49.5317 3.17456Z" fill="#777777"/>
<path d="M64.5306 4.32754C64.4109 4.36115 64.3579 4.28432 64.2549 4.22197C64.2284 4.22429 64.2023 4.22915 64.1759 4.23148C64.1952 4.24585 64.2092 4.26276 64.2261 4.27956C64.0561 4.31539 63.8496 4.20294 63.6749 4.15972C63.6676 4.16447 63.6654 4.17177 63.6604 4.17409C63.6673 4.19311 63.677 4.21964 63.689 4.23877C63.6151 4.18117 63.5551 4.12601 63.4447 4.10455V4.12125C63.4783 4.1501 63.5045 4.18117 63.5358 4.21489V4.22915C63.4542 4.20284 63.4686 4.19058 63.4135 4.2411C63.2383 4.09483 63.0969 3.90787 62.802 3.87427C62.8308 3.90069 62.8524 3.927 62.881 3.95564C62.8382 3.93895 62.7998 3.91728 62.7543 3.90523C62.716 3.93408 62.6751 3.96759 62.6343 4.00605C62.6272 4.01324 62.6224 4.02286 62.6176 4.03248C62.819 4.08046 63.0182 4.13319 63.2171 4.18107C63.1189 4.25293 63.0134 4.22408 62.8479 4.19301C62.8429 4.19777 62.8382 4.20738 62.8334 4.21224C62.8382 4.22176 62.8429 4.23127 62.8479 4.24099C63.1263 4.3081 63.2385 4.38472 63.4304 4.48079C63.4354 4.49283 63.4402 4.50488 63.4451 4.5145C63.3968 4.4977 63.3443 4.48808 63.2939 4.47603C63.2869 4.48079 63.2822 4.48554 63.2743 4.4903C63.2863 4.50953 63.2985 4.53606 63.3055 4.55276C63.7229 4.66298 64.7394 5.17132 65.0918 4.76856V4.75419C64.9117 4.63688 64.6457 4.46176 64.5306 4.32754Z" fill="#777777"/>
<path d="M52.267 3.62036V3.65407C52.2791 3.6397 52.2862 3.63008 52.3004 3.62036H52.267Z" fill="#777777"/>
<path d="M53.6959 3.7041C53.7247 3.74489 53.7127 3.73781 53.7703 3.75197V3.73781C53.7415 3.71372 53.751 3.71604 53.6959 3.7041Z" fill="#777777"/>
<path d="M54.0482 3.77374C54.005 3.75947 53.9643 3.75207 53.926 3.74023C53.9042 3.79297 53.9237 3.78589 53.8205 3.78103C53.8205 3.78578 53.818 3.79043 53.818 3.79519C53.8612 3.84803 53.9354 3.89601 54.0145 3.92011C54.0409 3.90077 54.0673 3.87942 54.0914 3.86008C54.0771 3.83112 54.0625 3.80248 54.0482 3.77374Z" fill="#777777"/>
<path d="M52.8471 3.86495C52.8207 3.85533 52.7967 3.8529 52.7728 3.84814C52.756 3.85533 52.739 3.86495 52.7248 3.87932C52.7152 3.88883 52.7033 3.90564 52.6937 3.92001C52.7465 3.9608 52.8304 3.94865 52.9095 3.93671C52.9141 3.92963 52.919 3.91758 52.9238 3.91029C52.8999 3.89612 52.8735 3.87943 52.8471 3.86495Z" fill="#777777"/>
<path d="M76.6601 17.0489C76.5833 16.8955 76.5088 16.7373 76.437 16.5767C76.4514 16.6006 76.4634 16.6222 76.4802 16.6438C76.4898 16.6486 76.4969 16.6533 76.509 16.6606V16.6293C76.5282 16.5551 76.4371 16.4567 76.3891 16.392C76.3988 16.3873 76.4132 16.3849 76.4203 16.3825C76.4513 16.4162 76.4899 16.452 76.5282 16.4928C76.5306 16.4928 76.538 16.4975 76.5401 16.4975C76.514 16.4329 76.4897 16.3705 76.4633 16.3058C76.5234 16.361 76.5738 16.4162 76.6313 16.4712C76.557 16.3034 76.3558 15.9604 76.1807 15.8863C76.2046 15.8239 76.1807 15.8502 76.2408 15.8647C76.1878 15.668 75.8929 15.493 75.8641 15.2005C75.8691 15.2005 75.8762 15.2027 75.8786 15.2027C75.9048 15.3633 76.0223 15.3202 76.0897 15.3898H76.1089C76.0464 15.3034 75.9841 15.2173 75.9268 15.1308C75.9554 15.1093 75.9841 15.0854 76.0152 15.0613C76.0897 15.0133 76.1422 15.1741 76.2409 15.1741C76.2503 15.2412 76.2574 15.246 76.2669 15.3155C76.2835 15.1307 76.2621 14.8935 76.2359 14.8287C76.1569 14.7376 76.1016 14.6033 76.032 14.4859C75.7993 14.0998 75.634 13.7834 75.4617 13.3422C75.4182 13.232 74.0204 11.0526 72.2412 9.38385C70.4024 7.66491 68.1774 6.45895 68.2084 6.45166C68.1607 6.5045 68.1272 6.55005 68.0455 6.57394C68.0553 6.67 68.036 6.67 68.0765 6.72993C68.0287 6.74905 67.9973 6.77072 67.9422 6.79703C67.9972 6.88084 68.0741 6.93368 68.127 7.00079C68.1388 7.05585 68.151 7.10637 68.1606 7.15911C68.302 7.37005 68.5923 7.47552 68.7049 7.73202C68.7815 7.74882 68.7744 7.72969 68.8245 7.69598C68.8487 7.75347 68.8703 7.81826 68.8917 7.88304C68.9685 7.979 69.3686 8.20897 69.5198 8.11554C69.5893 8.07718 69.5967 7.96695 69.563 7.87818C69.5918 7.86137 69.6231 7.84954 69.6515 7.83506C69.6397 7.8135 69.6323 7.78951 69.6229 7.76541V7.74882C70.0494 7.95247 70.263 8.4848 70.716 8.667C70.7353 8.72206 70.7591 8.7749 70.7783 8.82775C70.7111 8.85153 70.6967 8.89951 70.661 8.94981C70.7425 9.06268 70.8432 9.14903 70.9822 9.21138C70.9415 9.2712 70.9533 9.24023 70.8745 9.21856C70.8745 9.22565 70.8745 9.23051 70.8767 9.23294C70.9104 9.288 70.9417 9.30977 70.999 9.34084C71.0301 9.34306 71.0589 9.3456 71.0854 9.3456V9.2304C71.0445 9.18728 70.9942 9.09618 70.9197 9.06268C70.9197 9.01227 70.9104 9.04841 70.949 9.00995C70.9175 8.97391 70.884 8.93544 70.8575 8.90437C70.9393 8.94981 70.9871 9.01227 71.0279 9.09861C71.0854 9.10083 71.1452 9.10813 71.21 9.10813C71.2148 9.11045 71.2171 9.11045 71.2245 9.11045V9.0649C71.1788 9.01692 71.1406 8.96429 71.0999 8.91631C71.1213 8.87552 71.119 8.89697 71.1143 8.84666C71.1668 8.85131 71.2268 8.86104 71.2796 8.86822C71.2603 8.82986 71.2389 8.7915 71.2173 8.75081C71.2486 8.77723 71.8621 9.32626 71.8312 9.34539C71.7471 9.3885 71.7662 9.42919 71.7882 9.51797C71.7618 9.52494 71.7402 9.53223 71.7138 9.54196C71.6107 9.66413 71.5795 9.54893 71.4572 9.53963C71.4047 9.48679 71.4284 9.51807 71.4406 9.46513C71.3924 9.42687 71.3468 9.38132 71.3014 9.34549C71.3014 9.37191 71.3038 9.40531 71.3038 9.4293C71.2727 9.42465 71.2437 9.41725 71.2127 9.41006C71.2317 9.49873 71.191 9.46513 71.1668 9.5781C71.1455 9.57335 71.1164 9.56605 71.0951 9.5613C71.0639 9.5279 71.0472 9.44864 71.0447 9.41514C71.0137 9.3791 71.0253 9.38396 70.9678 9.36716C70.98 9.38396 70.9872 9.40806 71.0016 9.42708C70.8769 9.4294 70.7812 9.32615 70.697 9.2546C70.661 9.24499 70.697 9.24731 70.7088 9.22565C70.6683 9.18728 70.6464 9.17291 70.5698 9.16097C70.5675 9.14903 70.5603 9.14184 70.5579 9.13212C70.5603 9.12514 70.5652 9.11309 70.5698 9.10337C70.6707 9.16329 70.776 9.22797 70.8767 9.288C70.8167 9.15389 70.6705 8.95245 70.5101 9.00033C70.4716 8.95732 70.4571 8.84434 70.4139 8.77977C70.4355 8.79425 70.4524 8.80154 70.4761 8.81337C70.4811 8.79181 70.4832 8.7655 70.488 8.74394C70.3465 8.58087 70.1476 8.49453 70.0684 8.26678C70.0375 8.28115 70.0109 8.29563 69.9822 8.30969C69.9918 8.34826 70.0036 8.3936 70.0134 8.4345C69.9918 8.4345 69.9727 8.4345 69.9511 8.43217C69.9299 8.44655 69.9007 8.4587 69.8792 8.47054C69.9297 8.74151 70.4832 9.15875 70.4522 9.28102C70.4882 9.28811 70.5243 9.2954 70.5578 9.30512C70.6201 9.41059 70.6871 9.47052 70.7591 9.5856C70.7014 9.60959 70.7208 9.57842 70.7303 9.67184C70.6367 9.64056 70.6199 9.62872 70.5026 9.63116V9.70313C70.4329 9.71021 70.361 9.71982 70.2937 9.72225C70.2818 9.74614 70.2696 9.77013 70.2628 9.79169C70.2841 9.83026 70.3035 9.86133 70.3226 9.89484C70.3848 9.92358 70.3704 9.92358 70.4305 9.90192C70.469 9.98572 70.5026 10.0026 70.4952 10.0769C70.4522 10.1297 70.4832 10.1058 70.4185 10.0889C70.4138 10.0867 70.4065 10.0867 70.4017 10.0867C70.4162 10.1946 70.4138 10.2138 70.4642 10.2784C70.4257 10.2713 70.385 10.2641 70.3446 10.2592C70.2939 10.1058 70.2387 9.95476 70.1885 9.80363C70.1788 9.79655 70.1642 9.79169 70.1524 9.78926H70.1427C70.1905 9.99069 70.3607 10.3144 70.2386 10.4295C70.1593 10.5039 70.0034 10.5182 69.9366 10.6068C69.9823 10.7026 70.0205 10.7962 70.0612 10.8896C70.0133 10.9376 69.9823 10.9567 69.8959 10.9734C69.8575 11.0239 69.8193 11.0718 69.8959 11.1197C69.8839 11.1341 69.8672 11.1509 69.8529 11.1654C69.6658 11.2038 69.4549 11.0408 69.3157 10.9902C69.3135 10.9951 69.3062 11.0023 69.3013 11.0048C69.3877 11.1319 69.5027 11.2061 69.5483 11.3667C69.5676 11.3786 69.5819 11.3979 69.5961 11.4097V11.4243C69.474 11.4075 69.4044 11.3883 69.3205 11.4554C69.263 11.4075 69.1984 11.3643 69.1358 11.3163C69.0353 11.3713 68.8697 11.3498 68.7834 11.4386H68.7547C68.7809 11.568 68.8745 11.5536 68.9561 11.6184C68.9223 11.6232 68.8911 11.6303 68.8625 11.6351C69.0255 11.7838 69.2678 11.7455 69.4931 11.8295C69.5026 11.8295 70.2193 12.5009 70.2291 12.5343C70.2027 12.5152 70.1787 12.4959 70.1498 12.4719C70.1476 12.479 70.1429 12.484 70.1355 12.4862C70.3179 12.7357 70.5167 13.1001 70.5167 13.5724C70.2504 13.6708 69.6318 13.498 69.2842 13.4527C69.191 13.4433 68.9608 13.5462 68.8217 13.5006C68.7546 13.4741 68.7259 13.4191 68.6205 13.4431C68.539 13.4238 68.4935 13.5174 68.529 13.5918C68.4551 13.6133 68.3613 13.6228 68.3326 13.6779C68.3084 13.6899 68.2873 13.7019 68.2705 13.7164C68.2753 13.8723 68.3687 13.8601 68.3903 13.9778C68.4335 13.9683 68.4212 13.9683 68.4671 13.9441C68.5007 14.2057 68.6543 14.3901 68.7426 14.637C68.822 14.8552 68.7763 15.5025 68.7308 15.7183C68.8003 15.7758 68.8341 15.8214 68.8961 15.8932C68.925 15.8741 68.9563 15.8572 68.9873 15.8381C69.0665 16.0419 69.1214 16.253 69.112 16.5767C69.2534 16.524 69.4307 16.6079 69.5076 16.5814C69.5626 16.5647 69.5889 16.4975 69.6825 16.476C69.9414 16.3586 70.0684 16.9844 70.3539 17.0345C70.4114 16.9746 70.632 16.7636 70.6507 16.7109C70.8569 16.7062 70.9985 16.6797 71.1663 16.7325C71.1783 16.7109 71.188 16.6892 71.2003 16.6677C71.2815 16.6749 71.289 16.6845 71.3342 16.7205C71.3822 16.6173 71.4231 16.4256 71.4613 16.3368C71.5141 16.3129 71.5333 16.3081 71.6293 16.3081C71.634 16.2195 71.5697 16.0853 71.6224 15.9269C71.6487 15.8382 71.7181 15.8334 71.7447 15.7207C71.2817 15.4068 71.699 15.0112 71.5697 14.7619C71.6582 14.6469 71.7326 14.6851 71.8431 14.6036C71.9101 14.5557 71.9818 14.4117 72.0422 14.3496C72.0155 14.1816 71.7566 13.9396 71.8163 13.7597C71.8381 13.7093 71.9103 13.6758 71.9388 13.6133C72.1715 13.69 72.3175 13.7908 72.5213 13.8674C72.6199 13.7762 72.5957 13.5965 72.7805 13.5677C72.7922 13.5007 72.8092 13.4287 72.8235 13.3593C72.8235 13.3472 72.8213 13.3376 72.8213 13.3303C73.2334 13.3974 73.4734 13.9608 73.6818 14.2462C73.6818 14.2462 74.2548 14.7951 74.2765 14.8097C74.291 14.8192 74.3535 14.7857 74.4132 14.8241C74.4468 14.8817 74.4829 14.9438 74.5163 15.0038C74.9574 15.4114 75.0871 15.5361 75.2763 16.169C75.2309 16.193 75.1399 16.205 75.099 16.2817C74.9478 16.2746 74.9478 16.2578 74.8546 16.1834C74.8329 16.2122 74.8376 16.2026 74.8279 16.2578C74.8066 16.2386 74.7872 16.224 74.7657 16.2074C74.7635 16.2074 74.7562 16.2051 74.7513 16.2051C74.7442 16.2746 74.7299 16.3465 74.7657 16.409C74.7945 16.4568 75.3462 16.8981 75.4108 16.9267H75.4274C75.3938 16.6966 75.2762 16.5767 75.2762 16.2914C75.31 16.318 75.3364 16.3371 75.3673 16.361H75.3792C75.4128 16.2388 75.3844 16.0901 75.3408 15.987C75.3503 15.9055 75.3433 15.9271 75.3985 15.9008C75.3503 15.7066 75.2521 15.6849 75.1611 15.5556C75.1323 15.4404 75.1011 15.3206 75.0677 15.2054C75.0796 15.1961 75.0916 15.1887 75.1012 15.179C75.1636 15.2748 75.3362 15.4546 75.432 15.5172C75.3505 15.1863 75.0246 14.9034 74.7393 14.762C74.7056 14.7021 74.6961 14.6614 74.6986 14.5581C74.605 14.5103 74.5331 14.5487 74.4395 14.4719C74.2213 14.292 74.1229 14.0092 73.9482 13.7815C73.797 13.5897 73.514 13.5129 73.4374 13.2468C73.4424 13.2133 73.4518 13.1773 73.4567 13.1437C73.4208 13.0599 73.3321 13.0429 73.3033 12.9327C73.3871 12.9182 73.3826 12.8942 73.4208 12.8368C73.4422 12.8415 73.4613 12.8438 73.4854 12.8438C73.5404 12.9157 73.6509 13.1266 73.6914 13.2273C73.7033 13.2321 73.7155 13.2344 73.7225 13.2442C73.7249 13.2106 73.7346 13.1721 73.7368 13.1408C73.7658 13.1936 73.7898 13.2442 73.8136 13.2992C73.8304 13.3112 73.84 13.3231 73.8595 13.3326C73.8378 13.2823 73.8184 13.2344 73.8021 13.1936C73.9409 13.2441 73.996 13.4909 74.0681 13.5774C74.176 13.714 74.3413 13.7882 74.4397 13.8889C74.4229 13.8843 74.4038 13.8748 74.3844 13.8675C74.4229 13.9394 74.4519 13.9585 74.4876 14.0186C74.514 14.0186 74.5382 14.0234 74.5621 14.0257C74.5381 13.9992 74.5143 13.9778 74.4876 13.9562C74.4996 13.9514 74.507 13.9465 74.5166 13.9441C74.5478 13.9657 74.5813 13.9898 74.6101 14.0136C74.615 14.0257 74.6197 14.0328 74.622 14.0448C74.5908 14.0544 74.5618 14.0592 74.5333 14.0666C74.5981 14.1335 74.5859 14.0714 74.665 14.112C74.833 14.1936 75.1061 14.4789 75.2092 14.637C75.286 14.86 75.3746 15.0805 75.4612 15.3036C75.5618 15.4955 75.7944 15.6897 75.8782 15.8937C75.9238 15.8913 75.8828 15.8984 75.9238 15.8839C75.9286 15.9007 75.8876 15.9677 75.9238 16.0352C75.9668 16.0998 76.0581 16.1909 76.1634 16.2077C76.1418 16.2914 76.1348 16.27 76.1348 16.3899C76.2405 16.5386 76.3433 16.6848 76.4031 16.8837C76.4199 16.8909 76.4367 16.9055 76.4488 16.9174H76.4634C76.4514 16.8837 76.447 16.8408 76.437 16.8071C76.442 16.8071 76.447 16.8071 76.4514 16.8118C76.4827 16.8862 76.5186 16.9653 76.5569 17.0444C76.5642 17.0492 76.5737 17.0541 76.5834 17.0612C76.5737 17.0205 76.5642 16.9822 76.5569 16.9368C76.5834 16.9752 76.6124 17.0158 76.6456 17.0495H76.6604V17.0491H76.6601V17.0489Z" fill="#777777"/>
<path d="M47.3231 5.02035C47.2442 4.9747 47.1363 4.95821 47.0163 4.94849C46.9924 4.958 46.9659 4.96772 46.9373 4.97966C46.9828 5.0658 47.213 5.13787 47.3211 5.16662H47.333C47.3521 5.09951 47.3402 5.07562 47.3231 5.02035Z" fill="#777777"/>
<path d="M54.8875 5.46875C54.9163 5.51916 54.878 5.48545 54.9357 5.51441H54.95C54.957 5.50479 54.9596 5.49538 54.9667 5.48555C54.9405 5.48069 54.9116 5.47372 54.8875 5.46875Z" fill="#777777"/>
<path d="M55.6982 6.19775C55.71 6.21202 55.7196 6.2264 55.7291 6.24098C55.7339 6.24098 55.7389 6.24098 55.746 6.24331V6.22629C55.7292 6.21688 55.7148 6.20716 55.6982 6.19775Z" fill="#777777"/>
<path d="M55.1869 6.46143C55.1512 6.47094 55.1149 6.47823 55.0767 6.48785C55.0648 6.5911 55.0622 6.5168 55.0337 6.57662C55.2446 6.56711 55.4483 6.53572 55.6305 6.52388C55.4844 6.50211 55.3357 6.48066 55.1869 6.46143Z" fill="#777777"/>
<path d="M56.1868 6.77075C56.1868 6.81398 56.1726 6.78978 56.2015 6.83067C56.2159 6.81873 56.2324 6.80922 56.2494 6.80193V6.78513C56.2277 6.77783 56.2085 6.77297 56.1868 6.77075Z" fill="#777777"/>
<path d="M52.9839 7.27197C52.9789 7.28138 52.9744 7.28867 52.9695 7.30061C53.3173 7.51653 53.5569 7.70115 54.015 7.84013C54.027 7.83537 54.0364 7.83072 54.046 7.82819V7.78496C53.804 7.57159 53.3915 7.29596 52.9839 7.27197Z" fill="#777777"/>
<path d="M56.8465 7.51636C56.8418 7.53306 56.8347 7.54743 56.8295 7.56201C56.8848 7.53549 56.8513 7.57152 56.8778 7.51889C56.8681 7.51868 56.8561 7.51636 56.8465 7.51636Z" fill="#777777"/>
<path d="M69.815 10.4006C69.7431 10.3958 69.6713 10.3864 69.6014 10.3817C69.6326 10.3168 69.7121 10.2163 69.6855 10.1178C69.6516 9.96897 69.3786 9.66936 69.213 9.85885C69.1989 9.85652 69.1822 9.84923 69.1628 9.84204C69.0718 9.65276 68.9208 9.42016 68.6857 9.26913C68.5897 9.22844 68.4986 9.18987 68.4053 9.15415C68.1557 8.91678 68.0383 8.72972 67.6596 8.72476C67.7004 8.69369 67.7411 8.66716 67.7841 8.63852C67.7579 8.61685 67.7316 8.59529 67.7051 8.5786C67.7651 8.45642 67.6933 8.36036 67.7167 8.24527C67.5805 8.10629 67.3239 8.14455 67.144 8.18059C67.144 8.09425 67.1727 8.12775 67.0982 8.09425C67.1177 8.02471 67.146 7.98169 67.2014 7.94809C67.192 7.91448 67.1799 7.87855 67.1702 7.84483C67.012 7.81123 66.8587 7.87855 66.7076 7.83057C66.6741 7.87136 66.6789 7.88098 66.7076 7.93382C66.6837 7.99586 66.6931 8.00325 66.7435 8.06561C66.7314 8.07036 66.7194 8.07512 66.7098 8.07998C66.6573 8.07279 66.6838 8.06561 66.6498 8.10873C66.6789 8.15914 66.7098 8.20944 66.7437 8.25985V8.27412C66.6765 8.22625 66.607 8.17594 66.5422 8.12775C66.5087 8.18778 66.5255 8.15184 66.4775 8.22149C66.5589 8.29811 66.727 8.3556 66.8059 8.36046C66.8179 8.38192 66.8301 8.39872 66.8397 8.42261C66.8107 8.43709 66.787 8.45389 66.7605 8.46826C66.7943 8.54509 66.8205 8.54509 66.8084 8.63133C66.8588 8.62658 66.9114 8.61706 66.9619 8.6121C66.9692 8.58821 66.9737 8.56179 66.9785 8.54034V8.50916C66.9856 8.50916 66.9882 8.50673 66.9932 8.50673C67.0192 8.67466 67.1083 8.78975 67.1537 8.96719H67.216C67.2207 8.95758 67.2255 8.94542 67.2302 8.93591C67.2207 8.90949 67.2089 8.8855 67.1991 8.86162C67.2302 8.88075 67.2614 8.90009 67.2929 8.91921H67.3071C67.2906 8.87113 67.2761 8.81829 67.2593 8.77295C67.3021 8.80169 67.3431 8.83033 67.384 8.85919C67.4199 8.9264 67.4175 8.99351 67.389 9.08228C67.4344 9.12075 67.4822 9.15912 67.5254 9.1998H67.547C67.5325 9.17793 67.5204 9.15901 67.5086 9.13978V9.12561C67.5588 9.14474 67.6046 9.16155 67.6526 9.183V9.12318C67.7531 9.16155 67.7914 9.13756 67.868 9.07763C67.9714 9.20477 67.9283 9.40832 68.1799 9.37017C68.1821 9.49487 68.2134 9.53789 68.2566 9.61715C68.1367 9.71544 68.0169 9.6459 67.8896 9.62191C67.9063 9.72019 67.9402 9.70349 68 9.75623C67.976 9.77779 67.9569 9.8041 67.9352 9.83074C67.9402 9.83761 67.9471 9.84733 67.9547 9.85716C67.9954 9.84025 68.0336 9.82587 68.0743 9.8115C68.1175 9.86667 68.1632 9.91941 68.2013 9.97204C68.185 10.068 68.1032 10.1088 68.0025 10.1233C67.988 10.1376 67.9714 10.1544 67.9569 10.1711C68.0074 10.2143 68.0624 10.255 68.1151 10.3005C68.2759 10.2168 68.4244 10.3223 68.6042 10.3844C68.6451 10.3653 68.6881 10.3413 68.729 10.3245C68.7049 10.3749 68.7097 10.3701 68.7147 10.4301H68.4053C68.4075 10.5667 68.3163 10.7201 68.1967 10.8352V10.8662C68.2759 10.871 68.2852 10.8591 68.3691 10.907C68.4074 10.8471 68.3859 10.799 68.5011 10.7704C68.5824 10.7465 68.669 10.7944 68.7475 10.8135C68.7527 10.7608 68.7333 10.6624 68.7789 10.6336C68.7789 10.6336 69.2656 10.672 69.2847 10.684H69.3304C69.3186 10.6552 69.3089 10.6336 69.2971 10.6073C69.5319 10.6169 69.6471 10.6121 69.8316 10.5186C69.8337 10.5114 69.841 10.4995 69.846 10.4899C69.8342 10.4559 69.8269 10.4294 69.815 10.4006Z" fill="#777777"/>
<path d="M57.7623 9.31448C57.6879 9.29535 57.6761 9.36235 57.5466 9.38148C57.5443 9.35992 57.5396 9.33836 57.5345 9.31934C57.5779 9.25942 57.6257 9.21619 57.7025 9.18988C57.7096 9.1828 57.7143 9.17307 57.7193 9.16113C57.7143 9.15405 57.7096 9.14919 57.7025 9.14443C57.5108 9.15405 57.4724 9.19717 57.362 9.28108C57.3525 9.25942 57.3427 9.23786 57.331 9.2164C57.2926 9.207 57.3213 9.23088 57.2878 9.19971C57.3935 9.10607 57.614 9.04858 57.657 9.00546C57.6666 8.99827 57.6786 8.98612 57.6907 8.97893C57.6237 8.91679 57.4603 8.92852 57.35 8.91679C57.3861 8.81829 57.3524 8.89026 57.3335 8.76556C57.422 8.74875 57.4555 8.73449 57.5059 8.68175C57.4054 8.59065 57.2399 8.49712 57.1032 8.52354C57.041 8.46362 57.0938 8.42515 56.9979 8.38446C56.9522 8.4037 56.9979 8.41331 56.9475 8.39873C56.9379 8.43952 56.9331 8.42272 56.9667 8.45876C56.9353 8.45643 56.9043 8.45643 56.8733 8.454C56.7844 8.45876 56.8156 8.46351 56.8253 8.37949C56.7486 8.38647 56.7795 8.36977 56.7653 8.41796C56.7078 8.38679 56.6743 8.36755 56.6116 8.36998C56.6213 8.35328 56.6311 8.33648 56.6404 8.3219C56.5832 8.29326 56.6212 8.3052 56.5664 8.31968C56.5567 8.30774 56.5422 8.30055 56.5326 8.2885C56.5326 8.26937 56.5326 8.25003 56.5326 8.22858C56.5948 8.22393 56.6575 8.22171 56.7173 8.21896C56.7173 8.21664 56.7173 8.20966 56.7173 8.20459C56.6261 8.13769 56.5206 8.13769 56.4248 8.0561C56.3312 8.09203 56.24 8.1305 56.1488 8.16644C56.1923 8.0152 56.4609 7.87623 56.6116 7.84262C56.6333 7.81631 56.6548 7.78989 56.6766 7.76822C56.631 7.73229 56.631 7.7251 56.5543 7.71548V7.70111V7.68663C56.6336 7.7083 56.6885 7.73229 56.77 7.7251C56.7796 7.71548 56.7895 7.70618 56.8012 7.69879C56.8035 7.68198 56.8083 7.66761 56.8157 7.65313C56.7318 7.62671 56.6478 7.60526 56.5688 7.58105C56.4754 7.58349 56.3817 7.58349 56.2907 7.58581C56.2306 7.59796 56.0678 7.69371 55.979 7.73937C55.8136 7.81842 55.7466 8.0318 55.5307 8.07978C55.5019 8.13737 55.5043 8.12289 55.5282 8.18525V8.19952C55.4684 8.18768 55.4825 8.19952 55.4515 8.16844C55.3558 8.1899 55.303 8.25711 55.2503 8.32179C55.279 8.35064 55.3101 8.37949 55.3435 8.40105C55.2144 8.37939 55.056 8.45622 54.9075 8.47768C54.9192 8.52333 54.9289 8.57829 54.9384 8.62394C55.1924 8.69116 56.2286 8.89967 56.3123 8.98834C56.2933 8.98591 56.2716 8.98591 56.2523 8.98358C56.3554 9.0266 56.4585 9.06739 56.5618 9.10575C56.5858 9.07701 56.5811 9.08673 56.5907 9.03135C56.6578 9.05777 56.7248 9.08652 56.7919 9.11526C56.6649 9.16324 56.5282 9.19918 56.3123 9.18713C56.3052 9.20404 56.3005 9.2256 56.2957 9.24473C56.6217 9.3669 56.883 9.21598 57.1612 9.13439C57.1854 9.15838 57.2044 9.18713 57.226 9.21355C57.2212 9.33826 57.147 9.38381 57.0701 9.43189C57.0914 9.49403 57.0821 9.47977 57.1301 9.51084C57.2018 9.49171 57.2761 9.46518 57.3458 9.44616C57.317 9.50122 57.3051 9.52542 57.3002 9.62603C57.3839 9.64759 57.4488 9.6571 57.5302 9.68363C57.6456 9.62603 57.6789 9.50851 57.7821 9.43422C57.7741 9.39607 57.7696 9.35295 57.7623 9.31448Z" fill="#777777"/>
<path d="M66.446 7.88791C66.4197 7.88326 66.3934 7.8785 66.3648 7.87354C66.3263 7.90957 66.2855 7.94551 66.2446 7.97911C66.2879 8.03428 66.3166 8.05098 66.3216 8.10139C66.338 8.10847 66.3525 8.11819 66.367 8.13024C66.4029 8.09896 66.4412 8.06778 66.4774 8.03893C66.4651 7.98873 66.4532 7.93843 66.446 7.88791Z" fill="#777777"/>
<path d="M56.6879 7.84253V7.87138C56.7002 7.86176 56.7097 7.85458 56.7194 7.84253H56.6879Z" fill="#777777"/>
<path d="M66.3673 8.15877C66.3505 8.15179 66.329 8.13974 66.3075 8.13013C66.2882 8.14207 66.2645 8.15158 66.2474 8.1612C66.3002 8.21636 66.334 8.26213 66.3773 8.34118C66.3865 8.3434 66.4033 8.34826 66.4201 8.35323C66.4033 8.28823 66.3865 8.22588 66.3673 8.15877Z" fill="#777777"/>
<path d="M56.674 7.90234C56.6882 7.91915 56.7027 7.93363 56.7197 7.95022C56.7291 7.94071 56.7411 7.93838 56.753 7.93363V7.91904C56.7243 7.91429 56.7004 7.90699 56.674 7.90234Z" fill="#777777"/>
<path d="M70.2275 8.40112C70.237 8.41782 70.2466 8.43209 70.2587 8.44657H70.2729C70.2443 8.39626 70.28 8.43209 70.2275 8.40112Z" fill="#777777"/>
<path d="M66.6497 8.34839C66.669 8.36984 66.6835 8.38908 66.6979 8.40599C66.7027 8.39891 66.7074 8.38918 66.7145 8.37957C66.6904 8.36974 66.6713 8.36044 66.6497 8.34839Z" fill="#777777"/>
<path d="M66.3745 8.36973V8.40102C66.3862 8.3913 66.4032 8.38897 66.4199 8.38411V8.36963H66.3745V8.36973Z" fill="#777777"/>
<path d="M66.6862 8.48497C66.6813 8.48719 66.6742 8.49448 66.6692 8.49924V8.51371C66.6742 8.51826 66.6813 8.52323 66.6862 8.52798H66.7006C66.7029 8.51372 66.7075 8.49681 66.7149 8.48486L66.6862 8.48497Z" fill="#777777"/>
<path d="M66.6216 8.52808V8.57373H66.6549C66.6337 8.52808 66.6549 8.55672 66.6216 8.52808Z" fill="#777777"/>
<path d="M55.156 8.25954C55.1248 8.25954 55.096 8.25732 55.0673 8.25732C55.0528 8.25954 55.0432 8.2643 55.0315 8.27159C55.0266 8.28596 55.0216 8.29801 55.0168 8.31471C55.089 8.32443 55.1606 8.33151 55.2328 8.33881C55.2089 8.31239 55.1825 8.28586 55.156 8.25954Z" fill="#777777"/>
<path d="M57.1822 8.42261C57.1775 8.44417 57.1704 8.46097 57.163 8.48507C57.2062 8.48507 57.2492 8.48729 57.2899 8.48982C57.2614 8.42018 57.2684 8.43466 57.1822 8.42261Z" fill="#777777"/>
<path d="M66.9975 8.65747C66.9592 8.7175 66.9497 8.73916 66.8729 8.76305C66.8993 8.84696 66.9185 8.8253 66.9833 8.86366C67.0265 8.8253 67.0455 8.7176 66.9975 8.65747Z" fill="#777777"/>
<path d="M66.8871 8.67432C66.8803 8.67664 66.8753 8.68404 66.8729 8.6888V8.70296C66.8799 8.70528 66.8923 8.71004 66.904 8.71754C66.9088 8.71035 66.9109 8.70549 66.9185 8.70296C66.9065 8.69123 66.8994 8.68404 66.8871 8.67432Z" fill="#777777"/>
<path d="M52.9262 8.52582C52.8685 8.49221 52.8949 8.5236 52.878 8.44666C52.8061 8.37966 52.8397 8.40608 52.8637 8.30991C52.8493 8.30769 52.835 8.30061 52.8206 8.29321C52.7629 8.32196 52.7054 8.34119 52.6479 8.36518C52.6433 8.37469 52.6384 8.38431 52.6336 8.3915C52.7966 8.54041 52.943 8.62643 53.1707 8.71045C53.2211 8.74163 53.1898 8.71045 53.2019 8.75843C53.2401 8.80166 53.2617 8.81127 53.3265 8.83991C53.468 8.81127 53.4464 8.73687 53.6526 8.74416C53.6551 8.73941 53.6623 8.73708 53.6671 8.72979V8.71056C53.5639 8.66955 52.9262 8.52582 52.9262 8.52582Z" fill="#777777"/>
<path d="M67.2135 8.77271H67.1798V8.83506C67.2039 8.82534 67.2253 8.82058 67.2448 8.81593C67.2328 8.80156 67.2253 8.78708 67.2135 8.77271Z" fill="#777777"/>
<path d="M67.3144 9.47056C67.3094 9.46338 67.3021 9.4489 67.2999 9.43939C67.396 9.40821 67.3887 9.36499 67.4508 9.33148V9.25951C67.343 9.15404 67.2467 9.15404 67.1512 9.01031C67.0385 8.95504 66.95 8.9767 66.8587 9.051C66.8684 9.01507 66.8636 9.03176 66.8898 8.98621C66.8444 8.96952 66.7989 8.95271 66.7484 8.93115C66.7075 8.98146 66.6215 9.00302 66.5184 9.01496C66.5016 9.11578 66.5063 9.11578 66.4559 9.18511C66.5134 9.23077 66.5734 9.22358 66.6455 9.20688C66.6165 9.2835 66.5878 9.26194 66.5831 9.33148C66.4441 9.33148 66.3048 9.3337 66.1613 9.33624C66.1731 9.4248 66.1899 9.36974 66.2258 9.4248C66.2092 9.43199 66.1972 9.43685 66.1804 9.44404C66.2378 9.50142 66.2953 9.49677 66.3842 9.49191C66.3292 9.5494 66.322 9.55892 66.274 9.6069C66.3984 9.76754 66.4991 9.67168 66.6813 9.71956C66.5782 9.7891 66.607 9.79142 66.6046 9.89457C66.5354 9.96157 66.5424 9.93536 66.6046 9.98567C66.5639 10.0553 66.5784 10.0121 66.5901 10.096C66.5471 10.0912 66.5062 10.0888 66.468 10.0865C66.4537 10.1153 66.4464 10.1392 66.4345 10.1656C66.4944 10.1562 66.5469 10.1464 66.6046 10.1392C66.5687 10.1632 66.5327 10.1874 66.4989 10.2064C66.6837 10.6523 67.3311 10.0793 67.6139 10.0889C67.602 9.89002 67.5159 9.57107 67.3144 9.47056Z" fill="#777777"/>
<path d="M57.3811 8.78223C57.3764 8.79649 57.3714 8.81108 57.3667 8.82524C57.3811 8.81805 57.3957 8.81583 57.4097 8.81319C57.4026 8.80146 57.3909 8.79174 57.3811 8.78223Z" fill="#777777"/>
<path d="M71.3302 9.14429C71.3418 9.16574 71.3494 9.19227 71.3588 9.21615C71.3995 9.23052 71.4307 9.24257 71.4668 9.25473C71.4286 9.18973 71.4092 9.17293 71.3302 9.14429Z" fill="#777777"/>
<path d="M51.3894 8.8064C51.375 8.82806 51.3605 8.84719 51.3437 8.86389C51.3531 8.87108 51.3626 8.87594 51.3726 8.8808C51.4158 8.84719 51.4109 8.87108 51.4371 8.8064H51.3894Z" fill="#777777"/>
<path d="M52.5333 8.87085C52.5285 8.88998 52.5237 8.91174 52.5164 8.93077C52.5333 8.94271 52.5502 8.95243 52.567 8.96448C52.6581 8.95243 52.7517 8.93552 52.845 8.92358C52.7394 8.90699 52.6387 8.89008 52.5333 8.87085Z" fill="#777777"/>
<path d="M67.7004 9.26904C67.6857 9.30022 67.6786 9.32897 67.6691 9.36257C67.6739 9.37209 67.6786 9.38656 67.6838 9.40326C67.7124 9.39851 67.734 9.39364 67.7625 9.38656C67.7673 9.37208 67.7722 9.35539 67.7768 9.34334C67.7507 9.31692 67.7242 9.29525 67.7004 9.26904Z" fill="#777777"/>
<path d="M50.4136 8.82788C50.404 8.87586 50.4015 8.86149 50.4304 8.90218C50.4402 8.89277 50.452 8.88072 50.4617 8.87343C50.4448 8.85663 50.4328 8.84468 50.4136 8.82788Z" fill="#777777"/>
<path d="M54.1895 8.98853H54.1585C54.1562 9.00047 54.149 9.00766 54.1443 9.01727C54.1895 9.01241 54.2208 9.03651 54.1895 8.98853Z" fill="#777777"/>
<path d="M50.5068 8.89014V8.92142C50.5166 8.90937 50.5262 8.89732 50.5357 8.89014H50.5068Z" fill="#777777"/>
<path d="M54.1444 9.03415C54.1202 9.03161 54.0915 9.03161 54.0674 9.02686C54.0364 9.04852 54.0052 9.07019 53.974 9.08678C54.0364 9.089 54.0962 9.09153 54.1586 9.09639V9.0797C54.1539 9.06522 54.1492 9.04598 54.1444 9.03415Z" fill="#777777"/>
<path d="M56.1273 9.11548C56.1342 9.1345 56.1463 9.15395 56.1559 9.18005C56.1679 9.16557 56.1775 9.15849 56.187 9.14655C56.1681 9.13704 56.1487 9.12732 56.1273 9.11548Z" fill="#777777"/>
<path d="M57.1172 9.17773C57.0932 9.18978 57.0742 9.20669 57.0549 9.21863C57.0481 9.23301 57.0452 9.24749 57.0385 9.26429H57.0841C57.1129 9.25002 57.1365 9.2403 57.1631 9.22593V9.17784L57.1172 9.17773Z" fill="#777777"/>
<path d="M51.5745 9.02441C51.6009 9.03635 51.5791 9.03635 51.6031 9.02441H51.5745Z" fill="#777777"/>
<path d="M56.1251 9.18994C56.1201 9.20199 56.1154 9.20918 56.1105 9.22112C56.1251 9.2282 56.1419 9.23052 56.1559 9.24025C56.168 9.23549 56.1801 9.2282 56.1871 9.22334C56.1683 9.21383 56.1465 9.20199 56.1251 9.18994Z" fill="#777777"/>
<path d="M56.187 9.24023V9.26898C56.199 9.25936 56.2088 9.25228 56.216 9.24256C56.2088 9.24256 56.1991 9.24023 56.187 9.24023Z" fill="#777777"/>
<path d="M71.6081 9.65015C71.6416 9.66695 71.6702 9.68386 71.6965 9.69802V9.68375C71.6632 9.65258 71.6652 9.66695 71.6081 9.65015Z" fill="#777777"/>
<path d="M70.5199 9.76294C70.5149 9.76759 70.508 9.78196 70.5054 9.78926C70.551 9.77488 70.5222 9.78926 70.551 9.76294H70.5199Z" fill="#777777"/>
<path d="M70.3565 9.8396C70.3517 9.85154 70.345 9.85873 70.34 9.87078C70.345 9.8731 70.3517 9.87796 70.3565 9.88494C70.3662 9.87553 70.3757 9.86602 70.3853 9.8563V9.84171C70.3733 9.84193 70.3661 9.84192 70.3565 9.8396Z" fill="#777777"/>
<path d="M70.323 9.94263C70.323 9.95457 70.323 9.96672 70.3278 9.9811C70.3375 9.9811 70.3448 9.98585 70.3565 9.98585C70.3375 9.94263 70.3566 9.96651 70.323 9.94263Z" fill="#777777"/>
<path d="M49.558 9.46802V9.49687C49.5676 9.48725 49.5773 9.48007 49.5891 9.46802H49.558Z" fill="#777777"/>
<path d="M48.9821 9.53271C48.9774 9.54719 48.9723 9.56146 48.9678 9.5734C48.9893 9.54476 48.9942 9.56632 48.9821 9.53271Z" fill="#777777"/>
<path d="M49.2608 9.65747C49.2368 9.66455 49.2104 9.67438 49.1815 9.68611C49.1815 9.69583 49.1815 9.70545 49.1815 9.71274C49.2367 9.71972 49.2847 9.72469 49.3375 9.73177C49.3375 9.72469 49.3375 9.72226 49.3375 9.71739C49.3061 9.67184 49.3231 9.6766 49.2608 9.65747Z" fill="#777777"/>
<path d="M48.4091 9.67188C48.3997 9.67663 48.3901 9.68382 48.3782 9.68604V9.69808C48.4046 9.6909 48.4308 9.68382 48.4573 9.6742C48.4404 9.67431 48.4259 9.67431 48.4091 9.67188Z" fill="#777777"/>
<path d="M48.812 9.67651C48.8383 9.69067 48.8143 9.69067 48.8432 9.67651H48.812Z" fill="#777777"/>
<path d="M48.625 9.68848C48.637 9.70052 48.6466 9.71014 48.6561 9.71965H48.6728C48.6443 9.68848 48.6729 9.70771 48.625 9.68848Z" fill="#777777"/>
<path d="M49.4598 9.76514C49.4551 9.77718 49.4503 9.78448 49.4455 9.79621C49.4695 9.80339 49.4982 9.81534 49.5222 9.82738H49.5388C49.5436 9.81766 49.5484 9.80826 49.5508 9.79621C49.522 9.77243 49.5244 9.77243 49.4598 9.76514Z" fill="#777777"/>
<path d="M32.3459 10.825C32.293 10.9952 32.2284 11.1079 32.1972 11.2685C32.2044 11.2685 32.2091 11.2661 32.2114 11.2661C32.2835 11.1439 32.4539 11.012 32.3459 10.825Z" fill="#777777"/>
<path d="M32.096 11.3882C32.1417 11.3548 32.1178 11.3692 32.1248 11.3379C32.1154 11.3548 32.108 11.3717 32.096 11.3882Z" fill="#777777"/>
<path d="M46.1026 11.6328C46.098 11.6448 46.0933 11.652 46.0883 11.6617H46.1315C46.122 11.652 46.1124 11.6449 46.1026 11.6328Z" fill="#777777"/>
<path d="M31.8301 12.6089C31.8158 12.6808 31.7964 12.755 31.7845 12.8294C31.7868 12.8389 31.7942 12.8484 31.7964 12.8582C31.8062 12.8559 31.8109 12.8559 31.8158 12.8559C31.8349 12.7816 31.8517 12.7046 31.8708 12.6329C31.8588 12.6257 31.8445 12.6207 31.8301 12.6089Z" fill="#777777"/>
<path d="M73.6915 13.0308C73.7082 13.0499 73.7252 13.0739 73.7397 13.0954V13.0476C73.7251 13.0427 73.7082 13.0355 73.6915 13.0308Z" fill="#777777"/>
<path d="M37.642 12.7576C37.6302 12.7817 37.6231 12.8007 37.6133 12.8198C37.642 12.7863 37.6541 12.7983 37.642 12.7576Z" fill="#777777"/>
<path d="M39.0705 12.7288C39.0179 12.7744 38.9748 12.7792 38.9485 12.8559C39.0493 12.8653 39.1114 12.851 39.2024 12.8559V12.8415C39.1595 12.8031 39.1162 12.7623 39.0705 12.7288Z" fill="#777777"/>
<path d="M37.2196 12.9419C37.21 12.9587 37.2005 12.9732 37.1909 12.9875C37.2099 12.9756 37.229 12.9638 37.2485 12.954C37.2387 12.9468 37.2292 12.9468 37.2196 12.9419Z" fill="#777777"/>
<path d="M74.4301 14.009V14.0594H74.4589C74.4375 14.0114 74.459 14.0426 74.4301 14.009Z" fill="#777777"/>
<path d="M73.2315 13.9468C73.2459 13.9804 73.2603 14.0186 73.277 14.057C73.2459 14.0736 73.2147 14.0906 73.186 14.1121C73.1883 14.3062 73.3249 14.5556 73.4522 14.63C73.4617 14.642 73.4714 14.6489 73.4835 14.6612H73.4976C73.4928 14.4407 73.3823 14.0331 73.2315 13.9468Z" fill="#777777"/>
<path d="M73.4567 14.0281C73.4447 14.0305 73.4352 14.0328 73.4253 14.0401V14.0831C73.4519 14.0879 73.4735 14.0903 73.5 14.0903C73.4782 14.0427 73.4901 14.057 73.4567 14.0281Z" fill="#777777"/>
<path d="M31.0867 14.9321C31.0845 14.9419 31.0774 14.9513 31.0722 14.9633C31.0867 14.9823 31.1011 14.9992 31.1154 15.0159H31.1274C31.1226 14.9419 31.1322 14.9539 31.0867 14.9321Z" fill="#777777"/>
<path d="M73.9579 15.7184C73.9049 15.366 73.7542 14.992 73.5718 14.7474C73.56 14.7425 73.5432 14.7329 73.5266 14.7258C73.5191 14.7738 73.5069 14.8195 73.4952 14.8673C73.4354 14.9009 73.4544 14.9034 73.3752 14.8719C73.3873 15.0493 73.567 15.2147 73.6271 15.361C73.682 15.4736 73.6413 15.6127 73.6748 15.6992C73.7371 15.7351 73.749 15.7878 73.869 15.8071C73.8621 15.7662 73.8595 15.7206 73.8545 15.6798C73.8905 15.6846 73.8955 15.6896 73.9409 15.7183L73.9579 15.7184Z" fill="#777777"/>
<path d="M76.0007 15.0903V15.155C76.0152 15.1645 76.032 15.1742 76.0464 15.1887C76.032 15.1214 76.0367 15.131 76.0007 15.0903Z" fill="#777777"/>
<path d="M76.135 15.2126C76.1446 15.2318 76.1541 15.2509 76.1637 15.2748H76.1831C76.1567 15.2174 76.183 15.2437 76.135 15.2126Z" fill="#777777"/>
<path d="M76.0296 15.3708C76.0366 15.3947 76.0489 15.4213 76.0608 15.45C76.0366 15.4308 76.0199 15.414 76.0007 15.3997C76.02 15.4308 76.0367 15.4619 76.0608 15.4931C76.0752 15.4786 76.0895 15.4667 76.1062 15.4547C76.0776 15.4236 76.0537 15.3947 76.0296 15.3708Z" fill="#777777"/>
<path d="M76.1947 15.4453V15.4883C76.2139 15.5075 76.233 15.5266 76.2569 15.5411V15.4787C76.2328 15.4668 76.2138 15.4573 76.1947 15.4453Z" fill="#777777"/>
<path d="M75.6673 15.5986C75.6887 15.6275 75.7105 15.6514 75.7298 15.6778C75.7106 15.637 75.7057 15.6297 75.6673 15.5986Z" fill="#777777"/>
<path d="M76.3434 15.915V15.9606C76.3651 15.9702 76.3841 15.987 76.4058 15.9966C76.3841 15.9655 76.3651 15.9437 76.3434 15.915Z" fill="#777777"/>
<path d="M68.8848 15.6778C68.8872 15.7065 68.8946 15.7306 68.8993 15.7615C68.9038 15.7304 68.9111 15.7065 68.9161 15.6753C68.9037 15.6778 68.8945 15.6778 68.8848 15.6778Z" fill="#777777"/>
<path d="M75.967 16.1309V16.2506C75.9864 16.2696 75.9982 16.2864 76.015 16.3032C76.0294 16.3104 76.0437 16.3152 76.0582 16.32C76.0627 16.313 76.0677 16.3008 76.0698 16.2936C76.0365 16.2388 76.0029 16.186 75.967 16.1309Z" fill="#777777"/>
<path d="M76.2547 16.2147C76.2332 16.21 76.2166 16.2004 76.1924 16.1956C76.2382 16.2411 76.2862 16.2795 76.3292 16.3276C76.3365 16.3182 76.3485 16.3108 76.3603 16.2987C76.3244 16.2699 76.2908 16.2411 76.2547 16.2147Z" fill="#777777"/>
<path d="M76.0725 16.385C76.0775 16.4041 76.0846 16.4235 76.0894 16.4473C76.106 16.4666 76.1276 16.4809 76.1492 16.4977V16.433C76.1228 16.4186 76.1013 16.4017 76.0725 16.385Z" fill="#777777"/>
<path d="M34.7097 16.4041V16.5263C34.7287 16.524 34.7503 16.524 34.7671 16.5216V16.5048C34.75 16.4568 34.7478 16.4329 34.7097 16.4041Z" fill="#777777"/>
<path d="M76.6454 17.0969C76.6601 17.1282 76.6767 17.1594 76.6864 17.1907C76.6932 17.1786 76.7008 17.169 76.7076 17.1595C76.6816 17.1401 76.6648 17.1164 76.6454 17.0969Z" fill="#777777"/>
<path d="M54.5855 43.0461C54.5807 43.0653 54.576 43.0868 54.5712 43.1081C54.5954 43.0868 54.6216 43.0651 54.6478 43.0461H54.5855Z" fill="#777777"/>
<path d="M54.0963 43.0723C54.0821 43.0841 54.0651 43.094 54.0485 43.1035C54.058 43.1153 54.0701 43.1225 54.0821 43.1343H54.1561V43.12C54.1373 43.1034 54.1157 43.0866 54.0963 43.0723Z" fill="#777777"/>
<path d="M54.2189 43.0894V43.1203C54.2284 43.1083 54.2381 43.1012 54.2498 43.0894H54.2189Z" fill="#777777"/>
<path d="M51.7781 44.5635C51.7735 44.5804 51.7686 44.5949 51.7663 44.6139C51.795 44.5828 51.7758 44.6139 51.7927 44.5635H51.7781Z" fill="#777777"/>
<path d="M51.7469 44.6453C51.7445 44.6571 51.7374 44.6739 51.7349 44.6907C51.7444 44.6788 51.7542 44.6666 51.7639 44.6572C51.7588 44.6546 51.7541 44.6475 51.7469 44.6453Z" fill="#777777"/>
<path d="M50.6389 45.4937C50.5668 45.5057 50.4949 45.5131 50.4254 45.5227C50.344 45.7096 50.1545 45.8057 49.9986 45.9112V45.9276C50.0273 45.9399 50.0513 45.9493 50.0751 45.9615C50.2216 45.9401 50.3244 45.8821 50.4109 45.8201C50.4109 45.7937 50.4109 45.7672 50.4085 45.7433C50.5091 45.7288 50.5715 45.6808 50.6386 45.6328L50.6389 45.4937Z" fill="#777777"/>
<path d="M42.2331 46.0933C42.264 46.1076 42.2376 46.1097 42.2663 46.0933H42.2331Z" fill="#777777"/>
<path d="M42.1803 46.5466C42.1756 46.5584 42.1685 46.5661 42.1637 46.5778C42.1756 46.5823 42.1854 46.5896 42.195 46.5944C42.202 46.5896 42.2045 46.5823 42.2095 46.5778C42.2021 46.5656 42.1899 46.5584 42.1803 46.5466Z" fill="#777777"/>
<path d="M46.0764 47.6326C46.0932 47.7093 46.0883 47.7286 46.153 47.7546V47.743C46.1269 47.683 46.1509 47.6639 46.0764 47.6326Z" fill="#777777"/>
<path d="M42.7104 48.0208C42.7368 48.0665 42.7127 48.0257 42.7583 48.052C42.7632 48.0472 42.7678 48.0399 42.7728 48.0377V48.0208H42.7104Z" fill="#777777"/>
<path d="M42.4393 48.3782C42.4081 48.3519 42.4104 48.3519 42.3457 48.3469C42.3599 48.3635 42.3674 48.3782 42.3793 48.3924H42.4417C42.4417 48.3852 42.4393 48.383 42.4393 48.3782Z" fill="#777777"/>
<path d="M42.4586 48.6707V48.7186H42.5016C42.4872 48.7041 42.4731 48.6872 42.4586 48.6707Z" fill="#777777"/>
<path d="M42.6121 48.8892C42.6075 48.8986 42.6027 48.9081 42.5978 48.9201H42.6289C42.6217 48.908 42.6193 48.8986 42.6121 48.8892Z" fill="#777777"/>
<path d="M43.9976 51.2095C43.9929 51.2144 43.9879 51.2215 43.9834 51.2263C43.9929 51.2382 44.0074 51.2479 44.017 51.26C44.0287 51.2529 44.0456 51.2482 44.0601 51.2434C44.0409 51.2315 44.0192 51.2215 43.9976 51.2095Z" fill="#777777"/>
<path d="M44.2735 51.3513C44.2593 51.3463 44.2447 51.3416 44.2278 51.3345C44.1992 51.3537 44.1657 51.373 44.1368 51.3969C44.2326 51.4086 44.2711 51.4352 44.3046 51.3513H44.2735Z" fill="#777777"/>
<path d="M44.6429 51.3513C44.6141 51.3463 44.59 51.3416 44.5636 51.3345C44.5491 51.3416 44.5325 51.3463 44.5157 51.3513C44.5276 51.3536 44.5395 51.361 44.549 51.3658C44.5635 51.3803 44.5802 51.397 44.5922 51.4114C44.6139 51.4017 44.633 51.3873 44.6569 51.3803C44.6524 51.3681 44.6477 51.3607 44.6429 51.3513Z" fill="#777777"/>
<path d="M44.7794 51.5935V51.5788C44.6573 51.569 44.6021 51.5717 44.5182 51.5187C44.5036 51.4156 44.5182 51.38 44.4125 51.3508C44.4367 51.4636 44.4702 51.5885 44.4582 51.6577C44.4775 51.66 44.4893 51.6648 44.5062 51.672C44.5181 51.6359 44.535 51.5979 44.5494 51.5643C44.559 51.5714 44.5686 51.5758 44.5805 51.5788C44.6093 51.6532 44.6501 51.7127 44.7173 51.7466C44.6931 51.7106 44.6668 51.6769 44.6406 51.6411V51.6244C44.6884 51.6124 44.7317 51.6051 44.7794 51.5935Z" fill="#777777"/>
<path d="M44.5374 51.8235C44.5422 51.833 44.547 51.8424 44.5539 51.8568C44.5565 51.8423 44.5611 51.8329 44.5661 51.8235H44.5374Z" fill="#777777"/>
<path d="M45.4961 52.1445C45.4913 52.2022 45.4793 52.1688 45.5442 52.1903C45.5274 52.1758 45.5105 52.1614 45.4961 52.1445Z" fill="#777777"/>
<path d="M45.9398 52.1614C45.9758 52.2118 46.0525 52.207 46.1221 52.2212C46.1292 52.2096 46.1341 52.1998 46.1364 52.1902C46.0716 52.1807 46.0071 52.1712 45.9398 52.1614Z" fill="#777777"/>
<path d="M45.374 52.1902C45.4076 52.2668 45.4533 52.2935 45.5444 52.31C45.4963 52.2549 45.4532 52.2189 45.374 52.1902Z" fill="#777777"/>
<path d="M52.0204 0C40.4904 0 30.5957 6.99372 26.3495 16.9772C30.2648 10.0026 38.5484 1.63271 52.0011 1.64465C64.1568 1.6567 73.2411 8.96695 77.6959 16.9939C73.4546 7.00324 63.5575 0 52.0204 0Z" fill="#777777"/>
<path d="M78.6142 36.3472C75.0008 47.4001 64.8402 56.0001 51.9602 56.0001C38.2989 56.0001 29.121 47.5153 25.4312 36.5821C29.2698 46.7671 39.7063 54.0701 51.9772 54.0701C64.3465 54.07 74.85 46.6524 78.6142 36.3472Z" fill="#777777"/>
</g>
<defs>
<clipPath id="clip0">
<rect width="105.784" height="56" fill="white"/>
</clipPath>
</defs>
</svg>
